<svg version="1.1" viewBox="0.0 0.0 740.0 457.0" fill="none" stroke="none" stroke-linecap="square" stroke-miterlimit="10" width="740" height="457" xmlns:xlink="http://www.w3.org/1999/xlink" xmlns="http://www.w3.org/2000/svg"><path fill="#ffffff" d="M0 0L740.0 0L740.0 457.0L0 457.0L0 0Z" fill-rule="nonzero"/><path stroke="#333333" stroke-width="1.0" stroke-linecap="butt" d="M81.5 324.5L717.5 324.5" fill-rule="nonzero"/><path stroke="#cccccc" stroke-width="1.0" stroke-linecap="butt" d="M81.5 283.5L717.5 283.5" fill-rule="nonzero"/><path stroke="#cccccc" stroke-width="1.0" stroke-linecap="butt" d="M81.5 243.5L717.5 243.5" fill-rule="nonzero"/><path stroke="#cccccc" stroke-width="1.0" stroke-linecap="butt" d="M81.5 202.5L717.5 202.5" fill-rule="nonzero"/><path stroke="#cccccc" stroke-width="1.0" stroke-linecap="butt" d="M81.5 162.5L717.5 162.5" fill-rule="nonzero"/><path stroke="#cccccc" stroke-width="1.0" stroke-linecap="butt" d="M81.5 121.5L717.5 121.5" fill-rule="nonzero"/><clipPath id="id_0"><path d="M81.85 121.816666L717.15 121.816666L717.15 324.31668L81.85 324.31668L81.85 121.816666Z" clip-rule="nonzero"/></clipPath><path stroke="#d9d9d9" stroke-width="1.0" stroke-linecap="butt" stroke-dasharray="6.0,5.0" clip-path="url(#id_0)" d="M106.0 308.5L218.0 308.5" fill-rule="nonzero"/><path stroke="#d9d9d9" stroke-width="1.0" stroke-linecap="butt" stroke-dasharray="6.0,5.0" clip-path="url(#id_0)" d="M174.0 292.5L286.0 292.5" fill-rule="nonzero"/><path stroke="#d9d9d9" stroke-width="1.0" stroke-linecap="butt" stroke-dasharray="6.0,5.0" clip-path="url(#id_0)" d="M242.0 243.5L354.0 243.5" fill-rule="nonzero"/><path stroke="#d9d9d9" stroke-width="1.0" stroke-linecap="butt" stroke-dasharray="6.0,5.0" clip-path="url(#id_0)" d="M310.0 211.5L422.0 211.5" fill-rule="nonzero"/><path stroke="#d9d9d9" stroke-width="1.0" stroke-linecap="butt" stroke-dasharray="6.0,5.0" clip-path="url(#id_0)" d="M378.0 195.5L489.0 195.5" fill-rule="nonzero"/><path stroke="#d9d9d9" stroke-width="1.0" stroke-linecap="butt" stroke-dasharray="6.0,5.0" clip-path="url(#id_0)" d="M445.0 179.5L557.0 179.5" fill-rule="nonzero"/><path stroke="#d9d9d9" stroke-width="1.0" stroke-linecap="butt" stroke-dasharray="6.0,5.0" clip-path="url(#id_0)" d="M513.0 162.5L625.0 162.5" fill-rule="nonzero"/><path stroke="#d9d9d9" stroke-width="1.0" stroke-linecap="butt" stroke-dasharray="6.0,5.0" clip-path="url(#id_0)" d="M581.0 130.5L693.0 130.5" fill-rule="nonzero"/><path stroke="#000000" stroke-width="2.0" stroke-linecap="butt" stroke-opacity="0.0" clip-path="url(#id_0)" d="M150.0 324.0L106.0 324.0L106.0 308.0L150.0 308.0Z" fill-rule="nonzero"/><path fill="#4285f4" clip-path="url(#id_0)" d="M150.0 324.0L106.0 324.0L106.0 308.0L150.0 308.0Z" fill-rule="nonzero"/><path stroke="#000000" stroke-width="2.0" stroke-linecap="butt" stroke-opacity="0.0" clip-path="url(#id_0)" d="M218.0 308.0L174.0 308.0L174.0 292.0L218.0 292.0Z" fill-rule="nonzero"/><path fill="#4285f4" clip-path="url(#id_0)" d="M218.0 308.0L174.0 308.0L174.0 292.0L218.0 292.0Z" fill-rule="nonzero"/><path stroke="#000000" stroke-width="2.0" stroke-linecap="butt" stroke-opacity="0.0" clip-path="url(#id_0)" d="M286.0 292.0L242.0 292.0L242.0 243.0L286.0 243.0Z" fill-rule="nonzero"/><path fill="#4285f4" clip-path="url(#id_0)" d="M286.0 292.0L242.0 292.0L242.0 243.0L286.0 243.0Z" fill-rule="nonzero"/><path stroke="#000000" stroke-width="2.0" stroke-linecap="butt" stroke-opacity="0.0" clip-path="url(#id_0)" d="M354.0 243.0L310.0 243.0L310.0 211.0L354.0 211.0Z" fill-rule="nonzero"/><path fill="#4285f4" clip-path="url(#id_0)" d="M354.0 243.0L310.0 243.0L310.0 211.0L354.0 211.0Z" fill-rule="nonzero"/><path stroke="#000000" stroke-width="2.0" stroke-linecap="butt" stroke-opacity="0.0" clip-path="url(#id_0)" d="M422.0 211.0L378.0 211.0L378.0 195.0L422.0 195.0Z" fill-rule="nonzero"/><path fill="#4285f4" clip-path="url(#id_0)" d="M422.0 211.0L378.0 211.0L378.0 195.0L422.0 195.0Z" fill-rule="nonzero"/><path stroke="#000000" stroke-width="2.0" stroke-linecap="butt" stroke-opacity="0.0" clip-path="url(#id_0)" d="M489.0 195.0L445.0 195.0L445.0 179.0L489.0 179.0Z" fill-rule="nonzero"/><path fill="#4285f4" clip-path="url(#id_0)" d="M489.0 195.0L445.0 195.0L445.0 179.0L489.0 179.0Z" fill-rule="nonzero"/><path stroke="#000000" stroke-width="2.0" stroke-linecap="butt" stroke-opacity="0.0" clip-path="url(#id_0)" d="M557.0 179.0L513.0 179.0L513.0 162.0L557.0 162.0Z" fill-rule="nonzero"/><path fill="#4285f4" clip-path="url(#id_0)" d="M557.0 179.0L513.0 179.0L513.0 162.0L557.0 162.0Z" fill-rule="nonzero"/><path stroke="#000000" stroke-width="2.0" stroke-linecap="butt" stroke-opacity="0.0" clip-path="url(#id_0)" d="M625.0 162.0L581.0 162.0L581.0 130.0L625.0 130.0Z" fill-rule="nonzero"/><path fill="#4285f4" clip-path="url(#id_0)" d="M625.0 162.0L581.0 162.0L581.0 130.0L625.0 130.0Z" fill-rule="nonzero"/><path stroke="#000000" stroke-width="2.0" stroke-linecap="butt" stroke-opacity="0.0" clip-path="url(#id_0)" d="M693.0 324.0L649.0 324.0L649.0 130.0L693.0 130.0Z" fill-rule="nonzero"/><path fill="#bdbdbd" clip-path="url(#id_0)" d="M693.0 324.0L649.0 324.0L649.0 130.0L693.0 130.0Z" fill-rule="nonzero"/><path fill="#000000" d="M389.60938 431.15L389.60938 423.57187L386.78125 423.57187L386.78125 422.55624L393.59375 422.55624L393.59375 423.57187L390.75 423.57187L390.75 431.15L389.60938 431.15ZM398.35938 430.38437Q397.76562 430.88437 397.21875 431.0875Q396.6875 431.29062 396.0625 431.29062Q395.03125 431.29062 394.48438 430.79062Q393.9375 430.29062 393.9375 429.50937Q393.9375 429.05624 394.14062 428.68124Q394.34375 428.29062 394.6875 428.07187Q395.03125 427.8375 395.45312 427.72812Q395.75 427.63437 396.39062 427.55624Q397.65625 427.41562 398.26562 427.19687Q398.26562 426.97812 398.26562 426.93124Q398.26562 426.275 397.96875 426.00937Q397.5625 425.66562 396.76562 425.66562Q396.03125 425.66562 395.67188 425.93124Q395.3125 426.18124 395.14062 426.8375L394.10938 426.69687Q394.25 426.04062 394.57812 425.63437Q394.90625 425.22812 395.51562 425.00937Q396.125 424.79062 396.92188 424.79062Q397.71875 424.79062 398.21875 424.97812Q398.71875 425.16562 398.95312 425.44687Q399.1875 425.72812 399.28125 426.16562Q399.32812 426.43124 399.32812 427.13437L399.32812 428.54062Q399.32812 430.00937 399.39062 430.4Q399.46875 430.79062 399.67188 431.15L398.5625 431.15Q398.40625 430.82187 398.35938 430.38437ZM398.26562 428.025Q397.6875 428.25937 396.54688 428.43124Q395.89062 428.525 395.625 428.65Q395.35938 428.75937 395.20312 428.97812Q395.0625 429.19687 395.0625 429.47812Q395.0625 429.9 395.375 430.18124Q395.70312 430.4625 396.3125 430.4625Q396.92188 430.4625 397.39062 430.19687Q397.875 429.93124 398.09375 429.4625Q398.26562 429.10312 398.26562 428.41562L398.26562 428.025ZM400.875 429.29062L401.90625 429.13437Q402.0 429.75937 402.39062 430.0875Q402.79688 430.41562 403.53125 430.41562Q404.25 430.41562 404.59375 430.13437Q404.95312 429.8375 404.95312 429.43124Q404.95312 429.07187 404.64062 428.86874Q404.42188 428.72812 403.5625 428.50937Q402.40625 428.2125 401.95312 428.00937Q401.51562 427.79062 401.28125 427.41562Q401.04688 427.04062 401.04688 426.57187Q401.04688 426.16562 401.23438 425.80624Q401.42188 425.44687 401.75 425.2125Q402.0 425.04062 402.42188 424.91562Q402.84375 424.79062 403.34375 424.79062Q404.0625 424.79062 404.60938 425.00937Q405.17188 425.2125 405.4375 425.57187Q405.70312 425.93124 405.79688 426.525L404.76562 426.66562Q404.70312 426.19687 404.35938 425.93124Q404.03125 425.65 403.40625 425.65Q402.6875 425.65 402.375 425.9Q402.0625 426.13437 402.0625 426.4625Q402.0625 426.66562 402.1875 426.82187Q402.32812 426.99374 402.59375 427.10312Q402.75 427.16562 403.53125 427.36874Q404.65625 427.68124 405.09375 427.86874Q405.53125 428.05624 405.78125 428.41562Q406.03125 428.775 406.03125 429.32187Q406.03125 429.85312 405.71875 430.32187Q405.42188 430.775 404.84375 431.04062Q404.26562 431.29062 403.53125 431.29062Q402.3125 431.29062 401.67188 430.79062Q401.04688 430.275 400.875 429.29062ZM407.29688 431.15L407.29688 422.55624L408.35938 422.55624L408.35938 427.4625L410.84375 424.93124L412.21875 424.93124L409.82812 427.22812L412.45312 431.15L411.15625 431.15L409.09375 427.9625L408.35938 428.68124L408.35938 431.15L407.29688 431.15Z" fill-rule="nonzero"/><path fill="#000000" d="M33.849995 274.56146L25.256245 276.8427L25.256245 275.67084L30.89687 274.35834Q31.77187 274.1552 32.64687 273.99896Q31.27187 273.67084 31.05312 273.60834L25.256245 271.98334L25.256245 270.60834L29.599995 269.37396Q31.224995 268.92084 32.64687 268.7021Q31.83437 268.54584 30.77187 268.2802L25.256245 266.93646L25.256245 265.79584L33.849995 268.1396L33.849995 269.24896L27.30312 271.04584Q26.49062 271.2802 26.30312 271.3271Q26.881245 271.4521 27.30312 271.5771L33.849995 273.3896L33.849995 274.56146ZM31.849995 260.93646L31.974995 259.8427Q32.92812 260.0927 33.45937 260.79584Q33.99062 261.49896 33.99062 262.5771Q33.99062 263.93646 33.14687 264.74896Q32.30312 265.54584 30.787495 265.54584Q29.224995 265.54584 28.36562 264.73334Q27.49062 263.92084 27.49062 262.6396Q27.49062 261.3896 28.33437 260.60834Q29.17812 259.81146 30.724995 259.81146Q30.818745 259.81146 31.006245 259.81146L31.006245 264.4521Q32.037495 264.3896 32.58437 263.87396Q33.11562 263.35834 33.11562 262.5771Q33.11562 261.99896 32.818745 261.5927Q32.506245 261.17084 31.849995 260.93646ZM30.14687 264.3896L30.14687 260.92084Q29.349995 260.98334 28.95937 261.31146Q28.349995 261.8271 28.349995 262.62396Q28.349995 263.35834 28.83437 263.85834Q29.318745 264.3427 30.14687 264.3896ZM31.849995 253.93646L31.974995 252.84271Q32.92812 253.09271 33.45937 253.79584Q33.99062 254.49896 33.99062 255.57709Q33.99062 256.93646 33.14687 257.74896Q32.30312 258.54584 30.787495 258.54584Q29.224995 258.54584 28.36562 257.73334Q27.49062 256.92084 27.49062 255.63959Q27.49062 254.38959 28.33437 253.60834Q29.17812 252.81146 30.724995 252.81146Q30.818745 252.81146 31.006245 252.81146L31.006245 257.4521Q32.037495 257.3896 32.58437 256.87396Q33.11562 256.35834 33.11562 255.57709Q33.11562 254.99896 32.818745 254.59271Q32.506245 254.17084 31.849995 253.93646ZM30.14687 257.3896L30.14687 253.92084Q29.349995 253.98334 28.95937 254.31146Q28.349995 254.82709 28.349995 255.62396Q28.349995 256.35834 28.83437 256.85834Q29.318745 257.3427 30.14687 257.3896ZM33.849995 251.18646L25.256245 251.18646L25.256245 250.12396L30.162495 250.12396L27.631245 247.63959L27.631245 246.26459L29.92812 248.65521L33.849995 246.03021L33.849995 247.32709L30.662495 249.38959L31.381245 250.12396L33.849995 250.12396L33.849995 251.18646ZM31.99062 245.60834L31.83437 244.57709Q32.45937 244.48334 32.787495 244.09271Q33.11562 243.68646 33.11562 242.95209Q33.11562 242.23334 32.83437 241.88959Q32.537495 241.53021 32.131245 241.53021Q31.77187 241.53021 31.568745 241.84271Q31.42812 242.06146 31.20937 242.92084Q30.912495 244.07709 30.70937 244.53021Q30.49062 244.96771 30.11562 245.20209Q29.74062 245.43646 29.27187 245.43646Q28.86562 245.43646 28.506245 245.24896Q28.14687 245.06146 27.912495 244.73334Q27.74062 244.48334 27.61562 244.06146Q27.49062 243.63959 27.49062 243.13959Q27.49062 242.42084 27.70937 241.87396Q27.912495 241.31146 28.27187 241.04584Q28.631245 240.78021 29.224995 240.68646L29.36562 241.71771Q28.89687 241.78021 28.631245 242.12396Q28.349995 242.45209 28.349995 243.07709Q28.349995 243.79584 28.599995 244.10834Q28.83437 244.42084 29.162495 244.42084Q29.36562 244.42084 29.52187 244.29584Q29.693745 244.15521 29.80312 243.88959Q29.86562 243.73334 30.068745 242.95209Q30.381245 241.82709 30.568745 241.38959Q30.756245 240.95209 31.11562 240.70209Q31.474995 240.45209 32.02187 240.45209Q32.55312 240.45209 33.02187 240.76459Q33.474995 241.06146 33.74062 241.63959Q33.99062 242.21771 33.99062 242.95209Q33.99062 244.17084 33.49062 244.81146Q32.974995 245.43646 31.99062 245.60834Z" fill-rule="nonzero"/><path fill="#000000" d="M69.35 324.0823Q69.35 322.55106 69.6625 321.62918Q69.975 320.69168 70.58437 320.19168Q71.20937 319.69168 72.14687 319.69168Q72.83437 319.69168 73.35 319.97293Q73.88125 320.25418 74.225 320.78543Q74.56875 321.30106 74.75625 322.05106Q74.94375 322.80106 74.94375 324.0823Q74.94375 325.59793 74.63125 326.5198Q74.33437 327.44168 73.70937 327.9573Q73.1 328.4573 72.14687 328.4573Q70.9125 328.4573 70.19375 327.56668Q69.35 326.50418 69.35 324.0823ZM70.42812 324.0823Q70.42812 326.19168 70.92812 326.8948Q71.42812 327.59793 72.14687 327.59793Q72.88125 327.59793 73.36562 326.8948Q73.86562 326.19168 73.86562 324.0823Q73.86562 321.9573 73.36562 321.2698Q72.88125 320.56668 72.13125 320.56668Q71.4125 320.56668 70.975 321.17606Q70.42812 321.9573 70.42812 324.0823Z" fill-rule="nonzero"/><path fill="#000000" d="M69.35 285.56668L70.45937 285.47293Q70.58437 286.28543 71.02187 286.69168Q71.475 287.09793 72.11562 287.09793Q72.86562 287.09793 73.39687 286.5198Q73.92812 285.94168 73.92812 285.00418Q73.92812 284.09793 73.4125 283.5823Q72.9125 283.05106 72.08437 283.05106Q71.58437 283.05106 71.1625 283.28543Q70.75625 283.5198 70.52187 283.87918L69.5375 283.75418L70.36562 279.34793L74.64687 279.34793L74.64687 280.34793L71.20937 280.34793L70.75625 282.66043Q71.52187 282.11356 72.36562 282.11356Q73.49062 282.11356 74.25625 282.8948Q75.0375 283.67606 75.0375 284.91043Q75.0375 286.06668 74.36562 286.92606Q73.5375 287.9573 72.11562 287.9573Q70.94375 287.9573 70.19375 287.30106Q69.45937 286.6448 69.35 285.56668Z" fill-rule="nonzero"/><path fill="#000000" d="M66.31875 247.31667L65.27187 247.31667L65.27187 240.59792Q64.88125 240.95729 64.25625 241.33229Q63.646873 241.69167 63.1625 241.86354L63.1625 240.84792Q64.0375 240.42604 64.69375 239.84792Q65.36562 239.25417 65.64687 238.69167L66.31875 238.69167L66.31875 247.31667ZM69.35 243.08229Q69.35 241.55104 69.6625 240.62917Q69.975 239.69167 70.58437 239.19167Q71.20937 238.69167 72.14687 238.69167Q72.83437 238.69167 73.35 238.97292Q73.88125 239.25417 74.225 239.78542Q74.56875 240.30104 74.75625 241.05104Q74.94375 241.80104 74.94375 243.08229Q74.94375 244.59792 74.63125 245.51979Q74.33437 246.44167 73.70937 246.95729Q73.1 247.45729 72.14687 247.45729Q70.9125 247.45729 70.19375 246.56667Q69.35 245.50417 69.35 243.08229ZM70.42812 243.08229Q70.42812 245.19167 70.92812 245.89479Q71.42812 246.59792 72.14687 246.59792Q72.88125 246.59792 73.36562 245.89479Q73.86562 245.19167 73.86562 243.08229Q73.86562 240.95729 73.36562 240.26979Q72.88125 239.56667 72.13125 239.56667Q71.4125 239.56667 70.975 240.17604Q70.42812 240.95729 70.42812 243.08229Z" fill-rule="nonzero"/><path fill="#000000" d="M66.31875 206.81667L65.27187 206.81667L65.27187 200.09792Q64.88125 200.45729 64.25625 200.83229Q63.646873 201.19167 63.1625 201.36354L63.1625 200.34792Q64.0375 199.92604 64.69375 199.34792Q65.36562 198.75417 65.64687 198.19167L66.31875 198.19167L66.31875 206.81667ZM69.35 204.56667L70.45937 204.47292Q70.58437 205.28542 71.02187 205.69167Q71.475 206.09792 72.11562 206.09792Q72.86562 206.09792 73.39687 205.51979Q73.92812 204.94167 73.92812 204.00417Q73.92812 203.09792 73.4125 202.58229Q72.9125 202.05104 72.08437 202.05104Q71.58437 202.05104 71.1625 202.28542Q70.75625 202.51979 70.52187 202.87917L69.5375 202.75417L70.36562 198.34792L74.64687 198.34792L74.64687 199.34792L71.20937 199.34792L70.75625 201.66042Q71.52187 201.11354 72.36562 201.11354Q73.49062 201.11354 74.25625 201.89479Q75.0375 202.67604 75.0375 203.91042Q75.0375 205.06667 74.36562 205.92604Q73.5375 206.95729 72.11562 206.95729Q70.94375 206.95729 70.19375 206.30104Q69.45937 205.64479 69.35 204.56667Z" fill-rule="nonzero"/><path fill="#000000" d="M67.89687 165.30104L67.89687 166.31667L62.209373 166.31667Q62.209373 165.94167 62.334373 165.58229Q62.553123 165.00417 63.021873 164.44167Q63.50625 163.87917 64.4125 163.14479Q65.81875 161.98854 66.30312 161.31667Q66.80312 160.64479 66.80312 160.05104Q66.80312 159.42604 66.35 159.00417Q65.89687 158.56667 65.17812 158.56667Q64.4125 158.56667 63.959373 159.01979Q63.50625 159.47292 63.490623 160.28542L62.4125 160.17604Q62.521873 158.95729 63.240623 158.33229Q63.975 157.69167 65.20937 157.69167Q66.44375 157.69167 67.1625 158.37917Q67.88125 159.06667 67.88125 160.08229Q67.88125 160.59792 67.6625 161.09792Q67.45937 161.58229 66.95937 162.14479Q66.475 162.69167 65.35 163.64479Q64.39687 164.44167 64.11562 164.73854Q63.85 165.01979 63.678123 165.30104L67.89687 165.30104ZM69.35 162.08229Q69.35 160.55104 69.6625 159.62917Q69.975 158.69167 70.58437 158.19167Q71.20937 157.69167 72.14687 157.69167Q72.83437 157.69167 73.35 157.97292Q73.88125 158.25417 74.225 158.78542Q74.56875 159.30104 74.75625 160.05104Q74.94375 160.80104 74.94375 162.08229Q74.94375 163.59792 74.63125 164.51979Q74.33437 165.44167 73.70937 165.95729Q73.1 166.45729 72.14687 166.45729Q70.9125 166.45729 70.19375 165.56667Q69.35 164.50417 69.35 162.08229ZM70.42812 162.08229Q70.42812 164.19167 70.92812 164.89479Q71.42812 165.59792 72.14687 165.59792Q72.88125 165.59792 73.36562 164.89479Q73.86562 164.19167 73.86562 162.08229Q73.86562 159.95729 73.36562 159.26979Q72.88125 158.56667 72.13125 158.56667Q71.4125 158.56667 70.975 159.17604Q70.42812 159.95729 70.42812 162.08229Z" fill-rule="nonzero"/><path fill="#000000" d="M67.89687 124.80104L67.89687 125.816666L62.209373 125.816666Q62.209373 125.441666 62.334373 125.08229Q62.553123 124.504166 63.021873 123.941666Q63.50625 123.379166 64.4125 122.64479Q65.81875 121.48854 66.30312 120.816666Q66.80312 120.14479 66.80312 119.55104Q66.80312 118.92604 66.35 118.504166Q65.89687 118.066666 65.17812 118.066666Q64.4125 118.066666 63.959373 118.51979Q63.50625 118.972916 63.490623 119.785416L62.4125 119.67604Q62.521873 118.45729 63.240623 117.83229Q63.975 117.191666 65.20937 117.191666Q66.44375 117.191666 67.1625 117.879166Q67.88125 118.566666 67.88125 119.58229Q67.88125 120.097916 67.6625 120.597916Q67.45937 121.08229 66.95937 121.64479Q66.475 122.191666 65.35 123.14479Q64.39687 123.941666 64.11562 124.23854Q63.85 124.51979 63.678123 124.80104L67.89687 124.80104ZM69.35 123.566666L70.45937 123.472916Q70.58437 124.285416 71.02187 124.691666Q71.475 125.097916 72.11562 125.097916Q72.86562 125.097916 73.39687 124.51979Q73.92812 123.941666 73.92812 123.004166Q73.92812 122.097916 73.4125 121.58229Q72.9125 121.05104 72.08437 121.05104Q71.58437 121.05104 71.1625 121.285416Q70.75625 121.51979 70.52187 121.879166L69.5375 121.754166L70.36562 117.347916L74.64687 117.347916L74.64687 118.347916L71.20937 118.347916L70.75625 120.660416Q71.52187 120.11354 72.36562 120.11354Q73.49062 120.11354 74.25625 120.89479Q75.0375 121.67604 75.0375 122.910416Q75.0375 124.066666 74.36562 124.92604Q73.5375 125.95729 72.11562 125.95729Q70.94375 125.95729 70.19375 125.30104Q69.45937 124.64479 69.35 123.566666Z" fill-rule="nonzero"/><path fill="#000000" d="M115.671 345.76254L116.47754 344.956L119.99098 348.46942Q120.90801 349.38644 121.23946 350.13776Q121.559875 350.878 121.361 351.7619Q121.15108 352.63474 120.278244 353.50757Q119.427505 354.3583 118.587814 354.62347Q117.74812 354.86652 116.96368 354.5461Q116.16818 354.21466 115.20696 353.25345L111.69353 349.74L112.50007 348.93347L116.00246 352.43585Q116.79795 353.23135 117.31723 353.46335Q117.847565 353.68433 118.41104 353.5407Q118.97451 353.37497 119.4938 352.85568Q120.37768 351.9718 120.35558 351.19843Q120.32243 350.41397 119.173386 349.26492L115.671 345.76254ZM122.42166 348.5357L123.040375 347.696Q123.54861 348.0717 124.05685 348.02747Q124.576126 347.97223 125.095406 347.45294Q125.60364 346.94473 125.647835 346.50278Q125.69203 346.03873 125.40476 345.75146Q125.15065 345.49738 124.78605 345.5747Q124.53193 345.62994 123.769585 346.08295Q122.742065 346.6906 122.27803 346.86737Q121.81399 347.02206 121.383095 346.92264Q120.9522 346.82318 120.62074 346.49173Q120.33348 346.20447 120.21195 345.81778Q120.090416 345.43106 120.15671 345.03333Q120.21195 344.73502 120.421875 344.34833Q120.6318 343.9616 120.98535 343.60806Q121.49358 343.09982 122.03496 342.8678Q122.57634 342.61368 123.01828 342.68Q123.46022 342.74628 123.94636 343.09982L123.31659 343.92847Q122.94094 343.6412 122.51005 343.69644Q122.079155 343.72958 121.637215 344.17154Q121.12898 344.67978 121.084785 345.0775Q121.02954 345.4642 121.26156 345.69623Q121.40519 345.83987 121.604065 345.86197Q121.825035 345.88406 122.0902 345.7736Q122.24488 345.70728 122.94094 345.2985Q123.957405 344.72397 124.399345 344.54718Q124.84129 344.37042 125.27219 344.44775Q125.70308 344.5251 126.089775 344.9118Q126.46542 345.28745 126.57591 345.83987Q126.68639 346.3702 126.46542 346.96683Q126.233406 347.5524 125.71413 348.0717Q124.85234 348.93347 124.04579 349.0329Q123.23925 349.11023 122.42166 348.5357ZM129.86838 340.8901L130.73016 340.2051Q131.22734 341.05585 131.10582 341.92868Q130.98428 342.8015 130.22192 343.56387Q129.26071 344.5251 128.08957 344.503Q126.92947 344.46985 125.85776 343.39813Q124.7529 342.29327 124.71976 341.11108Q124.67556 339.91785 125.58154 339.01187Q126.46542 338.128 127.61447 338.17218Q128.77457 338.20532 129.86838 339.29913Q129.93466 339.36542 130.06725 339.49802L126.785835 342.77942Q127.559235 343.46442 128.31053 343.48654Q129.05078 343.4976 129.60321 342.94516Q130.01201 342.53635 130.08936 342.03915Q130.16669 341.5199 129.86838 340.8901ZM126.22236 342.12756L128.67514 339.67477Q128.06746 339.1555 127.559235 339.1113Q126.76374 339.045 126.200264 339.6085Q125.68098 340.12778 125.66993 340.82382Q125.66993 341.50885 126.22236 342.12756ZM133.21608 340.37085L128.81877 335.9735L129.49272 335.29956L130.15564 335.96246Q129.94572 335.24432 130.01201 334.89075Q130.0783 334.5151 130.34346 334.24994Q130.71912 333.8743 131.33783 333.7196L131.77977 334.6698Q131.33783 334.78027 131.07266 335.04544Q130.81856 335.29956 130.77435 335.6531Q130.73016 335.98456 130.91798 336.32706Q131.18315 336.8574 131.64719 337.32144L133.95634 339.63058L133.21608 340.37085Z" fill-rule="nonzero"/><path fill="#000000" d="M157.42142 384.11203L151.34473 378.03534L152.16232 377.21774L160.12831 378.79767L155.35535 374.02472L156.12874 373.2513L162.20544 379.328L161.3768 380.15665L153.4108 378.57672L158.18378 383.34967L157.42142 384.11203ZM161.22212 375.914Q159.99573 374.68762 160.08412 373.42807Q160.16147 372.37848 160.97905 371.56088Q161.88504 370.6549 163.05618 370.677Q164.22733 370.677 165.27693 371.72662Q166.12767 372.57736 166.3597 373.3176Q166.59172 374.05786 166.37074 374.83124Q166.14977 375.58255 165.57524 376.15707Q164.65822 377.0741 163.49812 377.06305Q162.33803 377.0299 161.22212 375.914ZM161.98447 375.15167Q162.82416 375.99133 163.60861 376.0466Q164.4041 376.0908 164.95653 375.53836Q165.52 374.97488 165.46477 374.19043Q165.40952 373.40598 164.54773 372.5442Q163.73013 371.72662 162.93465 371.6824Q162.15019 371.62717 161.59778 372.1796Q161.04535 372.73203 161.08954 373.52753Q161.13373 374.30093 161.98447 375.15167ZM169.60797 370.59967L170.37032 371.14102Q170.1162 371.52774 169.87314 371.7708Q169.46434 372.1796 169.12183 372.27902Q168.76828 372.36743 168.45892 372.25693Q168.16061 372.1354 167.48665 371.46146L164.95653 368.93134L164.41515 369.47272L163.84062 368.8982L164.382 368.3568L163.2882 367.263L163.5865 366.0808L165.12225 367.61655L165.87357 366.86526L166.44809 367.4398L165.69678 368.19107L168.27109 370.76538Q168.5915 371.0858 168.71303 371.14102Q168.84561 371.18524 168.98924 371.1521Q169.13287 371.11893 169.2986 370.95322Q169.43118 370.82062 169.60797 370.59967ZM172.35905 366.34598L173.22084 365.66095Q173.71802 366.5117 173.5965 367.38452Q173.47496 368.25735 172.7126 369.0197Q171.75139 369.98093 170.58023 369.95883Q169.42014 369.9257 168.34843 368.85397Q167.24358 367.74915 167.21043 366.56693Q167.16624 365.3737 168.07222 364.4677Q168.9561 363.58383 170.10515 363.62802Q171.26524 363.66116 172.35905 364.75497Q172.42534 364.82126 172.55792 364.95386L169.2765 368.23526Q170.04991 368.9203 170.80121 368.94238Q171.54146 368.95343 172.09389 368.401Q172.50269 367.9922 172.58002 367.49503Q172.65736 366.97574 172.35905 366.34598ZM168.71303 367.5834L171.16582 365.1306Q170.55814 364.61136 170.04991 364.56714Q169.25441 364.50085 168.69093 365.06433Q168.17166 365.58362 168.16061 366.27966Q168.16061 366.9647 168.71303 367.5834ZM179.47432 362.05914L174.11577 356.7006L172.11598 358.70038L171.39783 357.9822L176.215 353.16507L176.93315 353.8832L174.92232 355.89404L180.28085 361.2526L179.47432 362.05914ZM185.12012 355.33057Q185.05383 356.10397 184.81076 356.6343Q184.57874 357.1536 184.1368 357.59552Q183.4076 358.32474 182.66734 358.35788Q181.9271 358.39102 181.37466 357.8386Q181.05426 357.5182 180.93272 357.10938Q180.80014 356.68954 180.88853 356.2918Q180.96587 355.883 181.18684 355.50735Q181.33047 355.23114 181.72821 354.7229Q182.52371 353.72855 182.79993 353.14294Q182.64525 352.98828 182.6121 352.95514Q182.14806 352.4911 181.75032 352.51318Q181.21999 352.55737 180.65651 353.12085Q180.13722 353.64014 180.07094 354.0821Q179.99359 354.51297 180.3361 355.09854L179.50746 355.72833Q179.14285 355.16486 179.08762 354.64557Q179.03238 354.12628 179.3086 353.5407Q179.5848 352.95514 180.14827 352.39166Q180.71175 351.8282 181.19789 351.6072Q181.68402 351.38623 182.04863 351.41937Q182.41322 351.45255 182.78888 351.6956Q183.00984 351.85028 183.50703 352.34747L184.5014 353.34183Q185.53996 354.3804 185.86037 354.61243Q186.19183 354.83337 186.58958 354.94388L185.80513 355.72833Q185.46263 355.60678 185.12012 355.33057ZM183.3855 353.72855Q183.14243 354.30307 182.45743 355.23114Q182.05968 355.76147 181.96024 356.0377Q181.84975 356.30286 181.89395 356.568Q181.94919 356.8221 182.14806 357.021Q182.44638 357.3193 182.86621 357.2972Q183.2971 357.26407 183.728 356.83316Q184.1589 356.40228 184.30254 355.883Q184.45721 355.35266 184.28043 354.86655Q184.14784 354.49088 183.66171 354.00476L183.3855 353.72855ZM187.73863 353.79483L181.66193 347.71814L182.41322 346.96683L185.88248 350.43607L185.84932 346.8895L186.8216 345.9172L186.75531 349.23178L191.38464 350.1488L190.46762 351.06583L186.75531 350.27032L186.74426 351.29785L188.48993 353.04352L187.73863 353.79483ZM186.76636 344.33728L185.90457 343.4755L186.65587 342.72418L187.51765 343.58597L186.76636 344.33728ZM191.98126 349.5522L187.58394 345.15488L188.33525 344.40356L192.73257 348.80087L191.98126 349.5522ZM194.10258 347.43088L189.70526 343.03354L190.36818 342.37064L190.9869 342.98935Q190.75488 341.78506 191.6719 340.86804Q192.06966 340.47028 192.54474 340.28244Q193.03088 340.0836 193.42862 340.14987Q193.82637 340.21616 194.20203 340.45923Q194.4451 340.63602 194.96437 341.1553L197.67126 343.86218L196.93102 344.60245L194.25726 341.92868Q193.79323 341.46466 193.48387 341.33206Q193.17451 341.1995 192.82095 341.28787Q192.45636 341.3652 192.15805 341.6635Q191.68295 342.1386 191.63876 342.8015Q191.59457 343.44235 192.43425 344.282L194.84283 346.6906L194.10258 347.43088ZM199.2733 342.98935L200.11299 342.37064Q200.48865 342.6579 200.85324 342.60266Q201.33939 342.53635 201.81447 342.06128Q202.33376 341.542 202.40004 341.05585Q202.47739 340.55865 202.21222 340.09464Q202.0465 339.79633 201.30624 339.07816Q201.39462 340.13882 200.66542 340.86804Q199.75945 341.77402 198.6104 341.61932Q197.4503 341.4536 196.54431 340.5476Q195.91455 339.91785 195.6052 339.16656Q195.29582 338.39316 195.43945 337.675Q195.58308 336.95685 196.16867 336.37128Q196.95311 335.58682 198.09111 335.70834L197.56078 335.17804L198.24579 334.493L202.0465 338.29373Q203.074 339.32123 203.29497 339.96204Q203.51595 340.60287 203.30603 341.29892Q203.10715 342.00604 202.44424 342.66895Q201.65979 343.4534 200.8201 343.58597Q199.98041 343.71857 199.2733 342.98935ZM197.25142 339.73004Q198.1132 340.59183 198.85345 340.64706Q199.59372 340.7023 200.11299 340.183Q200.63228 339.66373 200.57703 338.9235Q200.53284 338.17218 199.69315 337.3325Q198.88661 336.52594 198.1132 336.48175Q197.35086 336.4265 196.84262 336.93475Q196.34544 337.43195 196.40068 338.19427Q196.45593 338.93454 197.25142 339.73004Z" fill-rule="nonzero"/><path fill="#000000" d="M241.34413 366.83212Q242.29431 366.65533 242.93512 366.36807L243.26659 367.16357Q242.37164 367.57236 241.21155 367.716Q240.91324 368.7656 240.09566 369.5832Q239.26701 370.41183 238.1953 370.68805Q237.13464 370.95322 236.05188 370.59967Q234.96913 370.2461 234.06314 369.34012Q233.16821 368.4452 232.79256 367.34033Q232.41692 366.23547 232.70418 365.17484Q232.99144 364.11417 233.82008 363.28552Q234.65976 362.44583 235.74252 362.18066Q236.82529 361.8934 237.89699 362.25803Q238.9687 362.62262 239.87468 363.5286Q240.62598 364.2799 240.99059 365.10855Q241.36623 365.92612 241.34413 366.83212ZM238.54886 367.57236Q239.44379 367.07516 240.28348 367.00888Q240.33871 365.6499 239.04604 364.35724Q238.30579 363.61697 237.49924 363.31866Q236.6927 363.02036 235.90825 363.2082Q235.12381 363.3739 234.52719 363.97055Q233.6212 364.87653 233.6433 366.09186Q233.6654 367.2851 234.89178 368.51147Q236.07397 369.6937 237.30037 369.74893Q238.5157 369.79312 239.43274 368.8761Q239.86363 368.4452 240.07355 367.9038Q239.45483 368.0364 238.93555 368.3568L238.54886 367.57236ZM246.548 362.93198L245.89613 362.28012Q246.12816 363.5507 245.24428 364.43457Q244.85757 364.8213 244.37143 365.02014Q243.8853 365.19693 243.4986 365.1417Q243.10086 365.07538 242.70311 364.8102Q242.44899 364.6445 241.96286 364.15836L239.24492 361.44043L239.99622 360.68912L242.43794 363.13086Q243.01247 363.70538 243.26659 363.8711Q243.62013 364.09207 244.01788 364.04788Q244.41563 363.9816 244.75813 363.63907Q245.0896 363.30762 245.21112 362.85464Q245.33266 362.37955 245.15588 361.9597Q244.99016 361.5288 244.42668 360.96533L242.07333 358.612L242.8136 357.87173L247.2109 362.26907L246.548 362.93198ZM250.20506 356.44647L251.06685 355.76147Q251.56404 356.6122 251.4425 357.48505Q251.32097 358.35788 250.55862 359.12024Q249.5974 360.08145 248.42625 360.05936Q247.26616 360.0262 246.19444 358.9545Q245.0896 357.84964 245.05644 356.66745Q245.01225 355.4742 245.91823 354.56824Q246.80211 353.68436 247.95117 353.72855Q249.11127 353.7617 250.20506 354.8555Q250.27136 354.92178 250.40395 355.05435L247.12253 358.3358Q247.89592 359.02078 248.64722 359.04288Q249.38748 359.05392 249.9399 358.5015Q250.3487 358.0927 250.42604 357.59552Q250.50337 357.07623 250.20506 356.44647ZM246.55905 357.68393L249.01183 355.23114Q248.40416 354.71185 247.89592 354.66766Q247.10043 354.60138 246.53696 355.16486Q246.01767 355.68414 246.00662 356.3802Q246.00662 357.0652 246.55905 357.68393ZM251.95074 354.8997L252.56946 354.06Q253.07768 354.43564 253.58592 354.39145Q254.10521 354.3362 254.62448 353.81693Q255.13272 353.3087 255.17691 352.86676Q255.2211 352.4027 254.93384 352.11545Q254.67973 351.86133 254.31512 351.93866Q254.061 351.99393 253.29866 352.4469Q252.27115 353.05457 251.80711 353.23135Q251.34306 353.38602 250.91217 353.2866Q250.48128 353.18716 250.14983 352.8557Q249.86256 352.56845 249.74103 352.18173Q249.61949 351.79504 249.68579 351.3973Q249.74103 351.09897 249.95096 350.71228Q250.16087 350.3256 250.51442 349.97205Q251.02266 349.4638 251.56404 349.23178Q252.10542 348.97766 252.54736 349.04395Q252.9893 349.11026 253.47543 349.4638L252.84567 350.29245Q252.47002 350.0052 252.03912 350.06042Q251.60823 350.09357 251.16629 350.53552Q250.65805 351.04373 250.61386 351.4415Q250.55862 351.8282 250.79063 352.0602Q250.93427 352.20383 251.13315 352.22592Q251.35411 352.24805 251.61928 352.13754Q251.77396 352.07126 252.47002 351.66245Q253.48648 351.08792 253.92842 350.91116Q254.37036 350.73438 254.80125 350.8117Q255.23216 350.88907 255.61885 351.27576Q255.9945 351.6514 256.10498 352.20383Q256.21548 352.73416 255.9945 353.33078Q255.76248 353.91635 255.24321 354.43564Q254.38142 355.29742 253.57487 355.39688Q252.76833 355.4742 251.95074 354.8997ZM258.7677 349.38644L259.53003 349.92783Q259.2759 350.31454 259.03287 350.55762Q258.62405 350.9664 258.28156 351.06583Q257.928 351.15424 257.61865 351.04373Q257.32034 350.9222 256.64636 350.24826L254.11626 347.71814L253.57487 348.25952L253.00035 347.685L253.54173 347.14362L252.44792 346.0498L252.74623 344.8676L254.28198 346.40335L255.03328 345.65204L255.6078 346.22656L254.8565 346.97787L257.43082 349.5522Q257.75122 349.8726 257.87274 349.92783Q258.00534 349.97205 258.14896 349.93887Q258.2926 349.90573 258.45834 349.74002Q258.5909 349.60742 258.7677 349.38644ZM254.71288 344.33728L253.85109 343.4755L254.60239 342.72418L255.46417 343.58597L254.71288 344.33728ZM259.9278 349.5522L255.53047 345.15488L256.28177 344.40356L260.67908 348.80087L259.9278 349.5522ZM259.57422 345.50842Q258.34784 344.28204 258.43622 343.0225Q258.51358 341.9729 259.33118 341.1553Q260.23715 340.24933 261.4083 340.27142Q262.57944 340.27142 263.62906 341.321Q264.4798 342.17175 264.7118 342.91202Q264.94382 343.65225 264.72284 344.42566Q264.5019 345.17697 263.92737 345.7515Q263.0103 346.66852 261.85022 346.65747Q260.69012 346.62433 259.57422 345.50842ZM260.33658 344.74606Q261.17627 345.58575 261.96072 345.641Q262.75623 345.6852 263.30865 345.13278Q263.8721 344.5693 263.81686 343.78485Q263.76163 343.0004 262.89984 342.1386Q262.08224 341.321 261.28674 341.27682Q260.50232 341.2216 259.9499 341.77402Q259.39746 342.32645 259.44165 343.12195Q259.48584 343.89532 260.33658 344.74606ZM266.99884 342.4811L262.60153 338.0838L263.26443 337.4209L263.88318 338.0396Q263.65115 336.83533 264.56818 335.91827Q264.9659 335.52054 265.441 335.3327Q265.92715 335.13385 266.3249 335.20013Q266.72263 335.26642 267.0983 335.5095Q267.34137 335.68628 267.86063 336.20554L270.56754 338.91245L269.82727 339.65268L267.15353 336.97894Q266.68948 336.5149 266.38013 336.38232Q266.07077 336.24976 265.71722 336.33813Q265.35263 336.41547 265.05432 336.71378Q264.57922 337.18887 264.53503 337.85178Q264.49084 338.49258 265.33054 339.33228L267.7391 341.74088L266.99884 342.4811Z" fill-rule="nonzero"/><path fill="#000000" d="M278.07852 399.34796L269.6485 395.6246L270.52133 394.75177L276.5207 397.59125Q277.23883 397.93375 277.83545 398.2652Q277.4819 397.6244 277.17255 396.9394L274.3883 390.8848L275.2059 390.0672L278.90717 398.51932L278.07852 399.34796ZM279.4375 393.59167Q278.21112 392.3653 278.2995 391.10574Q278.37683 390.05615 279.19443 389.23856Q280.1004 388.33258 281.27155 388.35468Q282.44272 388.35468 283.4923 389.40427Q284.34305 390.255 284.57507 390.99527Q284.8071 391.73553 284.58612 392.5089Q284.36514 393.26022 283.79062 393.83475Q282.8736 394.75177 281.7135 394.74072Q280.5534 394.70758 279.4375 393.59167ZM280.19986 392.8293Q281.03955 393.669 281.82397 393.72424Q282.61948 393.76846 283.1719 393.21603Q283.73538 392.65256 283.68015 391.8681Q283.6249 391.08365 282.76312 390.22186Q281.94553 389.40427 281.15002 389.36008Q280.36557 389.30484 279.81314 389.85727Q279.2607 390.4097 279.30493 391.2052Q279.34912 391.97858 280.19986 392.8293ZM287.82333 388.2773L288.5857 388.8187Q288.33157 389.2054 288.0885 389.4485Q287.67972 389.85727 287.33722 389.9567Q286.98364 390.0451 286.6743 389.9346Q286.37598 389.81308 285.70203 389.1391L283.1719 386.609L282.63052 387.15036L282.056 386.57584L282.59738 386.0345L281.50357 384.94067L281.80188 383.75848L283.33765 385.29422L284.08893 384.5429L284.66345 385.11743L283.91217 385.86874L286.48648 388.44305Q286.8069 388.76346 286.9284 388.8187Q287.061 388.86288 287.20462 388.82974Q287.34827 388.7966 287.51398 388.6309Q287.64658 388.4983 287.82333 388.2773ZM283.76852 383.22815L282.90674 382.36636L283.65805 381.61505L284.51984 382.47684L283.76852 383.22815ZM288.98343 388.44305L284.58612 384.04575L285.33743 383.29443L289.73474 387.69174L288.98343 388.44305ZM291.10477 386.32175L286.70746 381.9244L287.37036 381.2615L287.98907 381.88022Q287.75705 380.67593 288.67407 379.7589Q289.07184 379.36115 289.5469 379.17334Q290.03305 378.97446 290.43082 379.04074Q290.82855 379.10703 291.2042 379.3501Q291.44727 379.5269 291.96655 380.04617L294.67343 382.75305L293.9332 383.49332L291.25943 380.81955Q290.7954 380.35553 290.48605 380.22293Q290.1767 380.09036 289.82312 380.17874Q289.45853 380.25607 289.16022 380.55438Q288.68512 381.02948 288.64093 381.69238Q288.59674 382.33322 289.43643 383.1729L291.845 385.58148L291.10477 386.32175ZM296.27548 381.88022L297.11517 381.2615Q297.4908 381.54877 297.85544 381.49353Q298.34155 381.42722 298.81665 380.95215Q299.33594 380.43286 299.40222 379.94672Q299.47955 379.44955 299.2144 378.9855Q299.04868 378.6872 298.3084 377.96902Q298.3968 379.0297 297.6676 379.7589Q296.76163 380.6649 295.61258 380.5102Q294.45248 380.34448 293.54648 379.43848Q292.91672 378.80872 292.60736 378.05743Q292.298 377.28403 292.44165 376.56586Q292.58527 375.84772 293.17084 375.26215Q293.9553 374.4777 295.0933 374.59924L294.56296 374.0689L295.24796 373.38388L299.04868 377.1846Q300.07617 378.2121 300.29715 378.8529Q300.51813 379.49374 300.3082 380.1898Q300.1093 380.8969 299.4464 381.5598Q298.66196 382.34427 297.82227 382.47684Q296.98257 382.60944 296.27548 381.88022ZM294.2536 378.6209Q295.1154 379.4827 295.85565 379.53793Q296.5959 379.59317 297.11517 379.07388Q297.63446 378.5546 297.57922 377.81436Q297.535 377.06305 296.6953 376.22336Q295.8888 375.4168 295.1154 375.37262Q294.35303 375.31738 293.8448 375.82562Q293.34763 376.3228 293.40286 377.08514Q293.4581 377.8254 294.2536 378.6209ZM302.55106 374.87543L298.8056 366.4675L299.6674 365.6057L308.23 369.1965L307.32404 370.10248L304.76077 368.97552L302.23065 371.50565L303.4018 374.02472L302.55106 374.87543ZM301.8108 370.62177L303.86584 368.5667L301.55667 367.51712Q300.49603 367.05307 299.86627 366.68848Q300.3303 367.39557 300.6949 368.18002L301.8108 370.62177ZM308.76035 368.66617L302.68362 362.58945L303.43494 361.83817L309.51163 367.91486L308.76035 368.66617ZM311.12473 367.03098L311.96442 366.41226Q312.34006 366.69952 312.70468 366.6443Q313.1908 366.57797 313.6659 366.1029Q314.18518 365.58362 314.25146 365.09747Q314.3288 364.6003 314.06363 364.13626Q313.89792 363.83795 313.15765 363.11978Q313.24603 364.18045 312.51685 364.90967Q311.61087 365.81564 310.46182 365.66095Q309.30173 365.49524 308.39572 364.58923Q307.76596 363.95947 307.4566 363.2082Q307.14725 362.43478 307.2909 361.7166Q307.4345 360.99847 308.02008 360.4129Q308.80453 359.62845 309.94254 359.75L309.4122 359.21967L310.0972 358.53464L313.89792 362.33536Q314.9254 363.36285 315.1464 364.00366Q315.36737 364.6445 315.15744 365.34055Q314.95856 366.04767 314.29565 366.71057Q313.5112 367.49503 312.6715 367.6276Q311.83182 367.7602 311.12473 367.03098ZM309.10284 363.77167Q309.96463 364.63345 310.7049 364.6887Q311.44513 364.74393 311.96442 364.22464Q312.4837 363.70535 312.42847 362.96512Q312.38425 362.2138 311.54456 361.3741Q310.73804 360.56757 309.96463 360.52338Q309.20227 360.46814 308.69403 360.97638Q308.19687 361.47357 308.2521 362.2359Q308.30734 362.97617 309.10284 363.77167ZM313.37863 359.65054Q312.15225 358.42416 312.24063 357.16464Q312.31796 356.11502 313.13556 355.29742Q314.04153 354.39145 315.21268 354.41354Q316.38382 354.41354 317.43344 355.46317Q318.28418 356.3139 318.5162 357.05414Q318.74823 357.7944 318.52725 358.56778Q318.30627 359.3191 317.73175 359.89362Q316.81473 360.81064 315.65463 360.7996Q314.49454 360.76645 313.37863 359.65054ZM314.141 358.8882Q314.98065 359.72787 315.7651 359.78314Q316.5606 359.82733 317.11304 359.2749Q317.6765 358.71143 317.62128 357.92697Q317.56604 357.14252 316.70425 356.28073Q315.88666 355.46317 315.09116 355.41895Q314.3067 355.3637 313.75427 355.91614Q313.20184 356.46857 313.24603 357.26407Q313.29025 358.03748 314.141 358.8882ZM320.7922 356.6343L316.39487 352.23697L317.06885 351.56302L317.73175 352.22592Q317.52182 351.50778 317.58813 351.1542Q317.65442 350.77856 317.9196 350.5134Q318.29523 350.13776 318.91394 349.98306L319.3559 350.93326Q318.91394 351.04373 318.64877 351.3089Q318.39465 351.56302 318.35046 351.91656Q318.30627 352.24802 318.4941 352.5905Q318.75928 353.12085 319.2233 353.5849L321.53244 355.89404L320.7922 356.6343ZM318.41678 348.5799L317.55496 347.7181L318.30627 346.96683L319.16806 347.8286L318.41678 348.5799ZM323.63168 353.79483L319.23434 349.3975L319.98566 348.6462L324.38297 353.04352L323.63168 353.79483ZM326.71423 349.38644L327.47656 349.92783Q327.22244 350.31454 326.97937 350.5576Q326.5706 350.9664 326.2281 351.06583Q325.87454 351.1542 325.5652 351.04373Q325.26685 350.9222 324.5929 350.24823L322.06277 347.7181L321.5214 348.2595L320.94687 347.68497L321.48825 347.1436L320.39444 346.0498L320.69275 344.86758L322.22852 346.40335L322.9798 345.65204L323.55432 346.22656L322.80304 346.97787L325.37735 349.5522Q325.69775 349.8726 325.81927 349.92783Q325.95187 349.97202 326.0955 349.93887Q326.23914 349.90573 326.40485 349.74002Q326.53745 349.60742 326.71423 349.38644ZM327.87433 349.5522L321.7976 343.4755L322.53787 342.73523L324.71445 344.9118Q324.6371 343.7959 325.4326 343.0004Q325.92978 342.5032 326.4822 342.34854Q327.03464 342.17175 327.5318 342.3596Q328.01794 342.53635 328.6698 343.18823L331.45404 345.97244L330.7138 346.7127L327.92957 343.92847Q327.3661 343.365 326.8689 343.35394Q326.3717 343.3429 325.92978 343.78485Q325.59833 344.1163 325.47678 344.59137Q325.35526 345.04437 325.52097 345.47528Q325.6867 345.88406 326.206 346.40335L328.61456 348.81192L327.87433 349.5522ZM332.82407 344.60245L328.42676 340.2051L329.08966 339.5422L329.70837 340.16092Q329.58685 339.61954 329.74152 339.0892Q329.88516 338.54782 330.3271 338.1059Q330.81323 337.61975 331.32147 337.50928Q331.84073 337.38773 332.32687 337.6308Q332.09485 336.33813 332.9235 335.5095Q333.58643 334.84656 334.29352 334.86865Q335.00064 334.86865 335.76297 335.631L338.77924 338.64728L338.03897 339.3875L335.26578 336.61435Q334.82385 336.1724 334.54764 336.05087Q334.28247 335.91827 333.9731 335.98456Q333.66376 336.05087 333.3986 336.31604Q332.93454 336.78006 332.93454 337.39877Q332.9456 338.00644 333.6306 338.69147L336.18283 341.24368L335.43152 341.99496L332.56995 339.1334Q332.07275 338.63623 331.64188 338.58096Q331.21097 338.50363 330.8022 338.91245Q330.48178 339.23285 330.38232 339.66373Q330.2829 340.09464 330.48178 340.53656Q330.68063 340.97852 331.27728 341.57513L333.56433 343.86218L332.82407 344.60245Z" fill-rule="nonzero"/><path fill="#000000" d="M377.55762 355.66202L378.36414 354.85547L381.8776 358.36893Q382.79462 359.28595 383.12607 360.03723Q383.44647 360.7775 383.24762 361.66138Q383.0377 362.5342 382.16486 363.40704Q381.31412 364.25778 380.47443 364.52295Q379.63474 364.76602 378.85028 364.44562Q378.05478 364.11417 377.09357 363.15292L373.58014 359.6395L374.38666 358.83295L377.88907 362.33533Q378.68457 363.13083 379.20383 363.36285Q379.73416 363.58383 380.29764 363.4402Q380.8611 363.27448 381.3804 362.7552Q382.26428 361.8713 382.2422 361.0979Q382.20905 360.31345 381.06 359.1644L377.55762 355.66202ZM387.6118 361.1421L381.52402 355.05435L382.198 354.3804L382.76147 354.94388Q382.67307 354.36935 382.80566 353.9053Q382.94928 353.4302 383.3802 352.99933Q383.94366 352.43585 384.6618 352.2922Q385.37997 352.1486 386.12024 352.469Q386.87152 352.77835 387.50128 353.4081Q388.17526 354.08206 388.47357 354.86652Q388.78293 355.63992 388.60614 356.39124Q388.42938 357.14252 387.92114 357.65076Q387.5455 358.0264 387.0925 358.17004Q386.62845 358.3026 386.20862 358.25842L388.35202 360.40186L387.6118 361.1421ZM384.41876 356.60114Q385.2695 357.45187 386.02078 357.5182Q386.76105 357.57343 387.2472 357.08728Q387.74435 356.5901 387.67807 355.8167Q387.6118 355.0433 386.7279 354.15942Q385.8882 353.31973 385.1369 353.25345Q384.37454 353.1761 383.88843 353.66223Q383.41333 354.13733 383.49066 354.94388Q383.56802 355.7504 384.41876 356.60114ZM390.849 354.52402L384.7723 348.44733L385.5236 347.696L391.6003 353.7727L390.849 354.52402ZM390.51755 350.45816Q389.29117 349.23178 389.37955 347.97223Q389.45688 346.9226 390.27448 346.10504Q391.18045 345.19904 392.3516 345.22113Q393.52274 345.22113 394.57236 346.27075Q395.4231 347.1215 395.65512 347.86176Q395.88715 348.602 395.66617 349.3754Q395.4452 350.1267 394.87067 350.70123Q393.95364 351.61826 392.79355 351.6072Q391.63345 351.57407 390.51755 350.45816ZM391.2799 349.6958Q392.1196 350.5355 392.90402 350.59073Q393.69952 350.63492 394.25195 350.08252Q394.81543 349.51904 394.7602 348.7346Q394.70496 347.95013 393.84317 347.08835Q393.02557 346.27075 392.23007 346.22656Q391.44562 346.17133 390.8932 346.72375Q390.34076 347.27618 390.38495 348.07166Q390.42917 348.84506 391.2799 349.6958ZM400.2734 344.01685Q400.20712 344.79025 399.96405 345.3206Q399.73203 345.83987 399.2901 346.2818Q398.56088 347.01102 397.82065 347.04416Q397.08038 347.0773 396.52795 346.52487Q396.20755 346.20447 396.086 345.79565Q395.95343 345.37582 396.0418 344.9781Q396.11917 344.56927 396.34012 344.19363Q396.48376 343.91742 396.8815 343.40918Q397.677 342.41483 397.95322 341.82925Q397.79852 341.67456 397.76538 341.64142Q397.30136 341.17737 396.9036 341.19946Q396.37326 341.24368 395.80978 341.80716Q395.29053 342.32642 395.2242 342.76837Q395.14688 343.19925 395.48938 343.78482L394.66074 344.4146Q394.29614 343.85114 394.2409 343.33185Q394.18567 342.81256 394.46188 342.227Q394.7381 341.64142 395.30157 341.07794Q395.86505 340.51447 396.35117 340.2935Q396.8373 340.0725 397.2019 340.10568Q397.56653 340.13882 397.94217 340.3819Q398.16315 340.53656 398.6603 341.03375L399.6547 342.0281Q400.69327 343.06668 401.01367 343.2987Q401.34512 343.51968 401.74286 343.63016L400.9584 344.4146Q400.6159 344.29306 400.2734 344.01685ZM398.5388 342.41483Q398.29572 342.98935 397.61072 343.91742Q397.21295 344.44775 397.11353 344.72397Q397.00305 344.98914 397.04724 345.2543Q397.10248 345.5084 397.30136 345.70728Q397.59967 346.00558 398.0195 345.9835Q398.4504 345.95035 398.8813 345.51947Q399.3122 345.08856 399.4558 344.56927Q399.6105 344.03894 399.43372 343.55283Q399.30115 343.17715 398.815 342.69104L398.5388 342.41483ZM405.74243 339.63058L405.19 339.07816Q405.42203 340.14987 404.61548 340.95642Q404.08514 341.48672 403.35596 341.64142Q402.6157 341.78503 401.85336 341.50882Q401.091 341.23264 400.41705 340.55865Q399.76517 339.9068 399.44476 339.14444Q399.12436 338.3821 399.2901 337.66394Q399.44476 336.93472 399.98615 336.39337Q400.38388 335.9956 400.85898 335.852Q401.33408 335.70834 401.7981 335.77463L399.62155 333.59808L400.3618 332.85782L406.4385 338.9345L405.74243 339.63058ZM401.19043 339.78525Q402.04117 340.636 402.81458 340.7023Q403.57693 340.75754 404.06305 340.2714Q404.5492 339.78525 404.49396 339.045Q404.43872 338.30475 403.62112 337.48715Q402.71515 336.58118 401.94174 336.5149Q401.17938 336.43756 400.67114 336.9458Q400.17398 337.44296 400.2513 338.18323Q400.3176 338.9124 401.19043 339.78525Z" fill-rule="nonzero"/><path fill="#000000" d="M429.8152 379.59317L430.50018 378.77557Q431.01947 379.1844 431.5056 379.27277Q431.99176 379.36115 432.58838 379.1402Q433.185 378.89713 433.70425 378.37784Q434.15726 377.92484 434.37823 377.43872Q434.58817 376.94153 434.52185 376.5438Q434.45557 376.12393 434.17935 375.84772Q433.8921 375.56046 433.51645 375.51627Q433.12973 375.46103 432.61047 375.69305Q432.2569 375.84772 431.21835 376.48853Q430.19083 377.11832 429.6826 377.27298Q429.00864 377.4829 428.46725 377.36136Q427.91483 377.2288 427.495 376.80896Q427.042 376.35596 426.89838 375.7041Q426.75473 375.03012 427.05304 374.33408Q427.35135 373.6159 427.959 373.00824Q428.633 372.3343 429.37323 372.03598Q430.10245 371.72662 430.80954 371.8813Q431.5056 372.02493 432.05804 372.53317L431.33987 373.3618Q430.69907 372.85358 430.0472 372.9309Q429.39532 372.98615 428.69928 373.68222Q427.97006 374.4114 427.90378 375.00803Q427.8375 375.60464 428.21313 375.98032Q428.5446 376.31177 428.98654 376.28967Q429.4285 376.26758 430.62173 375.51627Q431.82602 374.7539 432.35635 374.55505Q433.1408 374.27884 433.77057 374.40036Q434.38928 374.51083 434.88647 375.00803Q435.3726 375.49417 435.52728 376.20126Q435.6709 376.89734 435.39468 377.6597Q435.10742 378.41098 434.45557 379.06284Q433.62692 379.89148 432.83142 380.22293Q432.03595 380.53232 431.2294 380.36658Q430.4339 380.1898 429.8152 379.59317ZM437.6044 375.71515L431.5277 369.63843L432.26794 368.8982L434.44452 371.07474Q434.3672 369.95886 435.1627 369.16336Q435.65985 368.66617 436.21228 368.5115Q436.7647 368.33472 437.2619 368.52255Q437.74805 368.6993 438.3999 369.35117L441.18414 372.1354L440.44388 372.87567L437.65964 370.09143Q437.09616 369.52795 436.599 369.5169Q436.1018 369.50586 435.65985 369.9478Q435.3284 370.27927 435.20688 370.75433Q435.08533 371.20734 435.25107 371.6382Q435.41678 372.04703 435.93607 372.5663L438.34467 374.97488L437.6044 375.71515ZM444.8854 367.35138Q444.8191 368.1248 444.57605 368.65512Q444.34402 369.1744 443.90207 369.61633Q443.17288 370.34555 442.43262 370.3787Q441.69235 370.41183 441.13995 369.8594Q440.81952 369.539 440.698 369.13022Q440.56543 368.71036 440.6538 368.31262Q440.73114 367.9038 440.95212 367.52817Q441.09573 367.25195 441.4935 366.7437Q442.289 365.74936 442.56522 365.1638Q442.41052 365.0091 442.37738 364.97595Q441.91333 364.51193 441.5156 364.53403Q440.98526 364.57822 440.42178 365.1417Q439.9025 365.66098 439.8362 366.1029Q439.75888 366.5338 440.10138 367.1194L439.27274 367.74915Q438.90814 367.18567 438.8529 366.66638Q438.79764 366.1471 439.07385 365.56152Q439.35007 364.97595 439.91354 364.41248Q440.47702 363.849 440.96317 363.62802Q441.4493 363.40707 441.8139 363.44022Q442.1785 363.47336 442.55414 363.71643Q442.77512 363.8711 443.2723 364.3683L444.26666 365.36264Q445.30524 366.4012 445.62564 366.63324Q445.9571 366.85422 446.35486 366.9647L445.5704 367.74915Q445.2279 367.6276 444.8854 367.35138ZM443.1508 365.74936Q442.9077 366.32388 442.2227 367.25195Q441.82495 367.7823 441.72552 368.0585Q441.61502 368.32367 441.6592 368.58884Q441.71448 368.84296 441.91333 369.0418Q442.21164 369.34012 442.6315 369.31802Q443.06238 369.28488 443.4933 368.854Q443.92416 368.4231 444.0678 367.9038Q444.22247 367.3735 444.04572 366.88736Q443.91312 366.51172 443.427 366.02557L443.1508 365.74936ZM447.49286 365.8267L443.09552 361.42938L443.7695 360.7554L444.4324 361.41833Q444.22247 360.70016 444.2888 360.34662Q444.35507 359.97098 444.62024 359.7058Q444.99588 359.33014 445.6146 359.17548L446.05655 360.12564Q445.6146 360.23615 445.34943 360.50128Q445.0953 360.7554 445.05112 361.10898Q445.00693 361.44043 445.19476 361.78293Q445.45993 362.31326 445.92395 362.77728L448.2331 365.08646L447.49286 365.8267ZM451.9233 358.5678L452.7851 357.88278Q453.2823 358.73352 453.16077 359.60635Q453.0392 360.4792 452.2769 361.24155Q451.31564 362.20276 450.1445 362.18066Q448.9844 362.14752 447.9127 361.0758Q446.80783 359.97098 446.7747 358.78876Q446.7305 357.59552 447.63647 356.68954Q448.52036 355.80566 449.6694 355.84985Q450.8295 355.883 451.9233 356.9768Q451.9896 357.0431 452.1222 357.1757L448.84076 360.4571Q449.61417 361.14212 450.36548 361.1642Q451.1057 361.17526 451.65814 360.62283Q452.06696 360.21402 452.1443 359.71686Q452.22162 359.19757 451.9233 358.5678ZM448.2773 359.80524L450.73007 357.35245Q450.1224 356.8332 449.61417 356.78897Q448.81866 356.7227 448.2552 357.28616Q447.73593 357.80545 447.72488 358.5015Q447.72488 359.18652 448.2773 359.80524ZM457.53598 355.78357L451.4593 349.70688L455.5583 345.60785L456.27646 346.32602L452.98398 349.61847L454.86224 351.49673L457.71277 348.6462L458.4309 349.36435L455.58038 352.21487L458.34253 354.97702L457.53598 355.78357ZM457.13824 345.7515L456.27646 344.8897L457.02774 344.1384L457.88953 345.00018L457.13824 345.7515ZM462.35315 350.9664L457.9558 346.5691L458.70712 345.81778L463.10443 350.2151L462.35315 350.9664ZM464.45236 348.8672L458.37567 342.79047L459.12695 342.03918L465.20367 348.11588L464.45236 348.8672ZM468.18677 342.30435L469.04855 341.61932Q469.54575 342.47006 469.42422 343.3429Q469.30267 344.21573 468.5403 344.9781Q467.5791 345.9393 466.40796 345.9172Q465.24786 345.88406 464.17615 344.81238Q463.0713 343.70752 463.03815 342.52533Q462.99396 341.33206 463.89993 340.4261Q464.7838 339.5422 465.93286 339.5864Q467.09296 339.61954 468.18677 340.71335Q468.25305 340.77963 468.38565 340.91223L465.10422 344.19363Q465.87762 344.87866 466.62894 344.90076Q467.36917 344.9118 467.9216 344.35938Q468.3304 343.9506 468.40775 343.4534Q468.48508 342.9341 468.18677 342.30435ZM464.54074 343.54178L466.99353 341.08902Q466.38586 340.56973 465.87762 340.52554Q465.08212 340.45923 464.51865 341.0227Q463.9994 341.542 463.9883 342.23807Q463.9883 342.92307 464.54074 343.54178ZM469.93243 340.75754L470.55115 339.91785Q471.0594 340.29352 471.56763 340.24933Q472.0869 340.19406 472.6062 339.6748Q473.1144 339.16656 473.15863 338.7246Q473.20282 338.2606 472.91556 337.97333Q472.66144 337.7192 472.29684 337.79654Q472.04272 337.85178 471.28036 338.30478Q470.25284 338.91245 469.78882 339.08923Q469.32477 339.2439 468.8939 339.14447Q468.46298 339.045 468.13153 338.71356Q467.84427 338.4263 467.72275 338.0396Q467.6012 337.6529 467.66748 337.25516Q467.72275 336.95685 467.93265 336.57016Q468.14258 336.18344 468.49612 335.8299Q469.00436 335.32166 469.54575 335.08966Q470.08713 334.83554 470.52905 334.90182Q470.971 334.9681 471.45715 335.32166L470.82736 336.1503Q470.45172 335.86304 470.02084 335.91827Q469.58994 335.95145 469.148 336.39337Q468.63977 336.9016 468.59558 337.29935Q468.5403 337.68607 468.77234 337.91806Q468.916 338.0617 469.11484 338.0838Q469.33582 338.1059 469.60098 337.99542Q469.75568 337.9291 470.45172 337.52032Q471.4682 336.9458 471.91013 336.769Q472.35208 336.59225 472.78296 336.6696Q473.21387 336.74692 473.60056 337.13364Q473.9762 337.50928 474.0867 338.0617Q474.19717 338.59204 473.9762 339.18866Q473.7442 339.77423 473.2249 340.29352Q472.36313 341.1553 471.55658 341.25473Q470.75003 341.33206 469.93243 340.75754Z" fill-rule="nonzero"/><path fill="#000000" d="M500.65643 380.60965L494.57974 374.53293L496.8668 372.24588Q497.56284 371.54984 498.1705 371.3178Q498.77817 371.0858 499.3969 371.24048Q500.01562 371.37305 500.43546 371.7929Q500.82217 372.1796 500.95474 372.73203Q501.0873 373.28445 500.86636 373.92526Q501.5845 373.53857 502.26953 373.64905Q502.95453 373.73746 503.48486 374.26776Q503.9047 374.68762 504.10358 375.24005Q504.2914 375.78143 504.2251 376.24545Q504.1588 376.7095 503.84946 377.21774Q503.55115 377.71494 502.97662 378.28946L500.65643 380.60965ZM497.93848 376.2786L499.25327 374.96384Q499.7836 374.4335 499.9493 374.1352Q500.1703 373.73746 500.11505 373.37283Q500.04877 372.9972 499.72836 372.6768Q499.43005 372.37848 499.05438 372.2901Q498.67874 372.2017 498.3252 372.40057Q497.97165 372.57736 497.31976 373.22922L496.10443 374.44455L497.93848 376.2786ZM500.7448 379.08493L502.25848 377.5713Q502.64517 377.1846 502.7667 376.99677Q503.00977 376.6653 503.07605 376.37805Q503.14236 376.0687 503.0429 375.7262Q502.94348 375.38367 502.65622 375.0964Q502.31372 374.7539 501.8828 374.67657Q501.46298 374.5882 501.05417 374.7981Q500.6454 375.00803 500.0598 375.5936L498.65665 376.99677L500.7448 379.08493ZM503.78317 373.08557Q502.5568 371.8592 502.64517 370.59967Q502.72253 369.55002 503.54013 368.73242Q504.4461 367.82645 505.61725 367.84854Q506.7884 367.84854 507.838 368.89816Q508.68875 369.7489 508.92078 370.48917Q509.15277 371.2294 508.93182 372.0028Q508.71085 372.7541 508.13632 373.3286Q507.2193 374.24567 506.05917 374.23462Q504.89908 374.20148 503.78317 373.08557ZM504.54553 372.32324Q505.3852 373.16293 506.16968 373.21814Q506.96518 373.26233 507.5176 372.7099Q508.0811 372.14642 508.02582 371.362Q507.97058 370.57755 507.1088 369.71576Q506.2912 368.89816 505.49573 368.85397Q504.71127 368.79874 504.15884 369.35117Q503.6064 369.90356 503.6506 370.69907Q503.6948 371.4725 504.54553 372.32324ZM508.73294 368.1358Q507.50656 366.90942 507.59494 365.6499Q507.67227 364.60028 508.48987 363.78268Q509.39584 362.8767 510.567 362.8988Q511.73813 362.8988 512.7878 363.94843Q513.6385 364.79916 513.8705 365.5394Q514.10254 366.27966 513.88153 367.05304Q513.6606 367.80435 513.08606 368.37888Q512.169 369.2959 511.00894 369.28485Q509.84885 369.2517 508.73294 368.1358ZM509.4953 367.37347Q510.335 368.21317 511.11942 368.2684Q511.91492 368.3126 512.46735 367.76016Q513.0308 367.1967 512.9756 366.41223Q512.92035 365.62778 512.05853 364.766Q511.24097 363.94843 510.44547 363.9042Q509.661 363.84897 509.10858 364.4014Q508.55615 364.95383 508.60034 365.74933Q508.64456 366.52274 509.4953 367.37347ZM516.15753 365.10852L510.08087 359.0318L510.83215 358.28052L514.3014 361.74976L514.26825 358.2032L515.24054 357.2309L515.17426 360.54547L519.8036 361.4625L518.88654 362.37952L515.17426 361.584L515.1632 362.61154L516.9089 364.3572L516.15753 365.10852ZM520.4002 360.86588L516.00287 356.46854L516.6658 355.80563L517.2845 356.42435Q517.16296 355.88297 517.3176 355.35266Q517.4613 354.81128 517.90326 354.36932Q518.38934 353.88318 518.8976 353.7727Q519.4169 353.65118 519.903 353.89423Q519.671 352.60156 520.49963 351.77292Q521.16254 351.11002 521.8696 351.1321Q522.5768 351.1321 523.3391 351.89444L526.35535 354.9107L525.6151 355.65097L522.8419 352.87778Q522.39996 352.43582 522.1238 352.3143Q521.8586 352.1817 521.54926 352.24802Q521.23987 352.3143 520.97473 352.57947Q520.5107 353.0435 520.5107 353.66223Q520.5217 354.2699 521.2067 354.9549L523.759 357.5071L523.0076 358.25842L520.14606 355.39685Q519.6489 354.89966 519.218 354.84442Q518.7871 354.76706 518.3783 355.17587Q518.0579 355.49628 517.9585 355.9272Q517.859 356.35806 518.0579 356.80002Q518.2568 357.24194 518.8534 357.83856L521.14044 360.1256L520.4002 360.86588ZM529.8025 350.3808Q529.7362 351.1542 529.49316 351.68454Q529.2611 352.20383 528.8192 352.64575Q528.08997 353.37497 527.34973 353.4081Q526.6095 353.44125 526.05707 352.88882Q525.73663 352.56842 525.6151 352.1596Q525.48254 351.73978 525.5709 351.342Q525.64825 350.93323 525.8692 350.5576Q526.0129 350.28137 526.4106 349.77313Q527.2061 348.77878 527.4823 348.19318Q527.32764 348.0385 527.2945 348.00537Q526.83044 347.54132 526.4327 347.56342Q525.90234 347.6076 525.3389 348.17108Q524.81964 348.69037 524.7533 349.13232Q524.67596 349.5632 525.0185 350.14877L524.1899 350.77856Q523.82526 350.2151 523.77 349.6958Q523.7148 349.1765 523.99097 348.59094Q524.2672 348.00537 524.8307 347.4419Q525.39417 346.87842 525.88025 346.65744Q526.3664 346.43646 526.731 346.4696Q527.09564 346.50278 527.47125 346.74582Q527.69226 346.9005 528.18945 347.3977L529.1838 348.39206Q530.22235 349.43063 530.5428 349.66266Q530.8742 349.8836 531.272 349.9941L530.48755 350.77856Q530.145 350.657 529.8025 350.3808ZM528.0679 348.77878Q527.8248 349.3533 527.13983 350.28137Q526.74207 350.8117 526.64264 351.08792Q526.53217 351.3531 526.57635 351.61823Q526.6316 351.87234 526.83044 352.07123Q527.1288 352.36954 527.5486 352.34744Q527.9795 352.3143 528.4104 351.8834Q528.8413 351.4525 528.9849 350.93323Q529.1396 350.4029 528.9628 349.91675Q528.83026 349.5411 528.3441 349.05496L528.0679 348.77878ZM532.41 348.8561L528.01263 344.45877L528.6866 343.78482L529.34955 344.44772Q529.1396 343.72958 529.2059 343.37604Q529.27216 343.00037 529.53735 342.7352Q529.913 342.35956 530.53174 342.2049L530.97363 343.15506Q530.53174 343.26553 530.26654 343.5307Q530.01245 343.78482 529.96826 344.13837Q529.9241 344.46982 530.1119 344.81235Q530.377 345.34265 530.84106 345.8067L533.1502 348.11584L532.41 348.8561ZM535.24945 346.01663L529.1727 339.93994L529.9241 339.18863L533.3933 342.65787L533.36017 339.1113L534.3324 338.139L534.2661 341.45358L538.89545 342.3706L537.97845 343.28763L534.2661 342.49216L534.25507 343.51965L536.00073 345.26532L535.24945 346.01663ZM537.87897 340.7575L538.49774 339.91782Q539.0059 340.2935 539.51416 340.2493Q540.03345 340.19403 540.55273 339.67477Q541.061 339.16653 541.10516 338.72458Q541.14935 338.26056 540.8621 337.9733Q540.608 337.71918 540.2434 337.7965Q539.98926 337.85175 539.2269 338.30475Q538.1994 338.9124 537.73535 339.0892Q537.2713 339.24387 536.84045 339.14444Q536.40955 339.04498 536.07806 338.71353Q535.79083 338.42627 535.6693 338.03958Q535.5477 337.6529 535.614 337.25513Q535.6693 336.95682 535.8792 336.57013Q536.0891 336.1834 536.4427 335.82986Q536.9509 335.32162 537.4923 335.08963Q538.0337 334.8355 538.47565 334.9018Q538.91754 334.96808 539.4037 335.32162L538.7739 336.15027Q538.39825 335.863 537.9674 335.91824Q537.5365 335.95142 537.09454 336.39334Q536.5863 336.90158 536.5421 337.29932Q536.4869 337.68604 536.7189 337.91803Q536.86255 338.06168 537.0614 338.08377Q537.28235 338.10587 537.54755 337.9954Q537.7022 337.9291 538.39825 337.5203Q539.41473 336.94577 539.8567 336.76898Q540.29865 336.59222 540.7295 336.66956Q541.1604 336.7469 541.5471 337.1336Q541.9228 337.50925 542.03326 338.06168Q542.14374 338.592 541.9228 339.18863Q541.69073 339.7742 541.17145 340.2935Q540.3097 341.15527 539.5031 341.2547Q538.6966 341.33203 537.87897 340.7575Z" fill-rule="nonzero"/><path fill="#000000" d="M570.08344 366.97574L570.89 366.16922L574.40344 369.68265Q575.32043 370.59967 575.6519 371.35098Q575.9723 372.09122 575.77344 372.9751Q575.56354 373.84793 574.6907 374.7208Q573.83997 375.5715 573.00024 375.83667Q572.1606 376.07974 571.3761 375.75934Q570.5806 375.4279 569.6194 374.46667L566.10596 370.95322L566.91254 370.1467L570.4149 373.64908Q571.2104 374.44458 571.7297 374.67657Q572.26 374.89755 572.8235 374.75394Q573.38696 374.5882 573.90625 374.0689Q574.7901 373.18503 574.768 372.41162Q574.73486 371.6272 573.5858 370.47815L570.08344 366.97574ZM580.13763 372.45584L574.04987 366.36807L574.7238 365.69412L575.2873 366.2576Q575.1989 365.68307 575.3315 365.21902Q575.47516 364.74396 575.906 364.31305Q576.4695 363.74957 577.1877 363.60596Q577.9058 363.4623 578.64606 363.7827Q579.39734 364.09207 580.02716 364.72186Q580.7011 365.3958 580.9994 366.18027Q581.3088 366.95364 581.13196 367.70496Q580.9552 368.45627 580.44696 368.96448Q580.07135 369.34015 579.61835 369.48376Q579.1543 369.61636 578.73444 369.57214L580.87787 371.71558L580.13763 372.45584ZM576.9446 367.9149Q577.79535 368.76562 578.54663 368.8319Q579.28687 368.88715 579.773 368.401Q580.2702 367.90384 580.2039 367.13043Q580.13763 366.35703 579.2537 365.47314Q578.41406 364.63345 577.6627 364.56717Q576.9004 364.48984 576.41425 364.97595Q575.93915 365.45105 576.01654 366.2576Q576.0939 367.06415 576.9446 367.9149ZM584.6565 361.32996L585.4851 360.70016Q586.11487 361.573 586.0486 362.5011Q585.9823 363.42917 585.26416 364.14734Q584.35815 365.0533 583.22015 365.02017Q582.08215 364.9649 580.9773 363.86008Q580.2702 363.15295 579.97186 362.3906Q579.6736 361.60617 579.8835 360.8659Q580.1045 360.1146 580.679 359.54007Q581.3861 358.83298 582.2037 358.7446Q583.0213 358.6341 583.8278 359.17548L583.2091 360.01517Q582.6677 359.67267 582.1816 359.71686Q581.6844 359.75 581.3088 360.12564Q580.7453 360.68912 580.80054 361.45148Q580.8447 362.2028 581.7176 363.07562Q582.6125 363.97055 583.3527 364.0258Q584.093 364.08102 584.6344 363.53964Q585.0763 363.09772 585.0984 362.5453Q585.13153 361.9818 584.6565 361.32996ZM585.16473 359.65057Q583.9383 358.42416 584.02673 357.16464Q584.10406 356.11502 584.92163 355.29745Q585.82764 354.39145 586.9988 354.41354Q588.1699 354.41354 589.21954 355.46317Q590.07025 356.3139 590.3023 357.05417Q590.5343 357.7944 590.31335 358.5678Q590.09235 359.31912 589.5178 359.89365Q588.6008 360.81067 587.44073 360.79962Q586.28064 360.76648 585.16473 359.65057ZM585.92706 358.8882Q586.7667 359.7279 587.5512 359.78314Q588.3467 359.82733 588.8991 359.2749Q589.4626 358.71143 589.40735 357.927Q589.3521 357.14255 588.4903 356.28076Q587.6727 355.46317 586.87726 355.41898Q586.0928 355.36374 585.54034 355.91617Q584.9879 356.4686 585.0321 357.26407Q585.0763 358.03748 585.92706 358.8882ZM592.58936 356.62326L588.192 352.22595L588.8549 351.56302L589.47363 352.18176Q589.3521 351.64038 589.5068 351.11005Q589.6504 350.56866 590.09235 350.1267Q590.5785 349.6406 591.08673 349.5301Q591.606 349.40857 592.09216 349.65164Q591.8601 348.35895 592.6888 347.5303Q593.3517 346.8674 594.0588 346.8895Q594.76587 346.8895 595.52826 347.65186L598.5445 350.6681L597.80426 351.40836L595.03107 348.63516Q594.5891 348.19324 594.3129 348.0717Q594.0477 347.93912 593.7384 348.0054Q593.429 348.0717 593.1639 348.33685Q592.6998 348.8009 592.6998 349.41962Q592.7109 350.02728 593.3959 350.71228L595.94806 353.2645L595.1968 354.0158L592.3352 351.15424Q591.838 350.65704 591.4071 350.6018Q590.97626 350.52448 590.56744 350.93326Q590.247 351.25366 590.1476 351.68457Q590.04816 352.11545 590.247 352.5574Q590.4459 352.99933 591.04254 353.59598L593.3296 355.88303L592.58936 356.62326ZM594.4455 344.33728L593.5837 343.4755L594.335 342.7242L595.1968 343.586L594.4455 344.33728ZM599.6604 349.5522L595.26306 345.15488L596.0144 344.40356L600.4117 348.8009L599.6604 349.5522ZM601.78174 347.43088L597.3844 343.03357L598.0473 342.37064L598.666 342.98935Q598.434 341.78506 599.351 340.86804Q599.7488 340.4703 600.2239 340.28247Q600.71 340.0836 601.1077 340.1499Q601.5055 340.2162 601.88116 340.45926Q602.1242 340.63602 602.6435 341.1553L605.3504 343.8622L604.61017 344.60245L601.9364 341.9287Q601.47235 341.46466 601.163 341.3321Q600.85364 341.1995 600.50006 341.28787Q600.1355 341.36523 599.83716 341.66354Q599.36206 342.1386 599.3179 342.80154Q599.2737 343.44235 600.1134 344.28204L602.522 346.6906L601.78174 347.43088ZM606.95245 342.98935L607.7921 342.37064Q608.1678 342.6579 608.53235 342.60266Q609.0185 342.53638 609.4936 342.06128Q610.0129 341.542 610.07916 341.05588Q610.1565 340.5587 609.89136 340.09464Q609.72565 339.79633 608.98535 339.0782Q609.0737 340.13882 608.34454 340.86804Q607.4386 341.77402 606.28955 341.61935Q605.1294 341.4536 604.22345 340.54764Q603.5937 339.91788 603.2843 339.16656Q602.975 338.39316 603.1186 337.67502Q603.2622 336.95685 603.8478 336.37128Q604.63226 335.58685 605.77026 335.70837L605.2399 335.17804L605.9249 334.49304L609.72565 338.29373Q610.7531 339.32126 610.9741 339.96207Q611.19507 340.60287 610.98517 341.29895Q610.78625 342.00604 610.12335 342.66895Q609.3389 343.4534 608.4992 343.586Q607.65955 343.71857 606.95245 342.98935ZM604.93054 339.73004Q605.79236 340.59183 606.5326 340.64706Q607.2728 340.7023 607.7921 340.18304Q608.3114 339.66376 608.25616 338.9235Q608.212 338.1722 607.37225 337.33252Q606.56573 336.52597 605.79236 336.48178Q605.02997 336.4265 604.5217 336.93475Q604.0246 337.43195 604.07983 338.1943Q604.1351 338.93454 604.93054 339.73004Z" fill-rule="nonzero"/><path fill="#000000" d="M645.67554 367.57236L646.3606 366.75476Q646.8799 367.16357 647.36597 367.25195Q647.8521 367.34033 648.4487 367.1194Q649.04535 366.8763 649.56464 366.35703Q650.01764 365.90402 650.2386 365.4179Q650.44855 364.92072 650.38226 364.52298Q650.316 364.10312 650.03973 363.8269Q649.7525 363.53964 649.37683 363.49545Q648.9901 363.44022 648.4708 363.67224Q648.1173 363.8269 647.07874 364.4677Q646.0512 365.0975 645.54297 365.25217Q644.869 365.4621 644.32764 365.34055Q643.7752 365.20798 643.35535 364.78815Q642.9024 364.33514 642.7587 363.6833Q642.6151 363.0093 642.91345 362.31326Q643.21173 361.5951 643.8194 360.98743Q644.49335 360.31348 645.23364 360.01517Q645.9628 359.7058 646.6699 359.86047Q647.36597 360.00412 647.9184 360.51236L647.20026 361.34097Q646.55945 360.83276 645.9076 360.9101Q645.25574 360.96533 644.5597 361.6614Q643.83044 362.3906 643.76416 362.9872Q643.6979 363.58383 644.07355 363.9595Q644.40497 364.29095 644.8469 364.26886Q645.2889 364.24677 646.4821 363.49545Q647.6864 362.7331 648.21674 362.53424Q649.00116 362.25803 649.6309 362.37955Q650.24963 362.49002 650.7468 362.9872Q651.233 363.47336 651.38763 364.18045Q651.5313 364.87653 651.25507 365.6389Q650.96783 366.39017 650.316 367.04202Q649.4873 367.87067 648.69183 368.20212Q647.8963 368.5115 647.0898 368.34576Q646.2943 368.16898 645.67554 367.57236ZM656.34845 360.81067L655.6966 360.15878Q655.9286 361.42938 655.04474 362.31326Q654.658 362.69995 654.1719 362.89883Q653.6858 363.07562 653.2991 363.02036Q652.9013 362.95407 652.50354 362.6889Q652.24945 362.5232 651.7633 362.03705L649.04535 359.3191L649.7967 358.5678L652.2384 361.00952Q652.8129 361.58405 653.067 361.7498Q653.4206 361.97076 653.81836 361.92657Q654.21606 361.86026 654.5586 361.51776Q654.8901 361.1863 655.0116 360.7333Q655.1331 360.25824 654.95636 359.83838Q654.7906 359.4075 654.2271 358.84402L651.8738 356.49066L652.6141 355.75043L657.01135 360.14774L656.34845 360.81067ZM659.09955 358.05957L658.4035 358.7556L652.3268 352.67892L653.07806 351.92764L655.2436 354.09314Q655.1331 353.03247 655.8623 352.30328Q656.2711 351.89447 656.7904 351.70667Q657.3097 351.49673 657.84 351.56302Q658.3814 351.61826 658.93384 351.90552Q659.48627 352.19278 659.9613 352.66788Q661.08826 353.79483 661.14355 354.97702Q661.1988 356.1592 660.42535 356.93262Q659.6409 357.71707 658.5471 357.50714L659.09955 358.05957ZM656.8567 355.8388Q657.6411 356.62326 658.21564 356.75583Q659.14374 356.9768 659.74036 356.3802Q660.2265 355.89404 660.1602 355.12067Q660.105 354.3362 659.2542 353.48547Q658.39246 352.6237 657.6411 352.5574Q656.88983 352.4911 656.4037 352.97723Q655.91754 353.46338 655.9839 354.25888Q656.0502 355.03226 656.8567 355.8388ZM664.3255 351.50778L665.0878 352.04916Q664.83374 352.43585 664.5907 352.67892Q664.1819 353.08774 663.83936 353.18716Q663.48584 353.27554 663.17645 353.16507Q662.8782 353.04352 662.20416 352.36957L659.6741 349.83945L659.1327 350.38083L658.55817 349.8063L659.09955 349.26492L658.00574 348.1711L658.3041 346.98892L659.8398 348.5247L660.5911 347.77338L661.16565 348.3479L660.4143 349.0992L662.98865 351.67352Q663.309 351.99393 663.4306 352.04916Q663.5632 352.09335 663.7068 352.0602Q663.8504 352.02707 664.0162 351.86133Q664.14874 351.72876 664.3255 351.50778ZM663.01074 349.75107Q661.78436 348.5247 661.87274 347.26514Q661.9501 346.21555 662.76764 345.39795Q663.67365 344.49194 664.8448 344.51407Q666.0159 344.51407 667.06555 345.56366Q667.91626 346.4144 668.1483 347.15466Q668.3803 347.8949 668.15936 348.6683Q667.93835 349.41962 667.36383 349.99414Q666.44684 350.91116 665.28674 350.90012Q664.12665 350.86697 663.01074 349.75107ZM663.7731 348.9887Q664.6128 349.8284 665.3972 349.88364Q666.1927 349.92786 666.7451 349.37543Q667.3086 348.81195 667.25336 348.0275Q667.1981 347.24304 666.33636 346.38126Q665.51874 345.56366 664.72327 345.51947Q663.9388 345.46423 663.38635 346.01666Q662.834 346.5691 662.8782 347.3646Q662.92236 348.13797 663.7731 348.9887ZM671.3966 344.4367L672.15894 344.9781Q671.9048 345.3648 671.66174 345.60785Q671.2529 346.01666 670.91046 346.1161Q670.5569 346.20447 670.2475 346.094Q669.9492 345.97247 669.27527 345.2985L666.7451 342.76837L666.20374 343.30975L665.6292 342.73523L666.1706 342.19385L665.0768 341.10007L665.3751 339.91785L666.9109 341.4536L667.6622 340.7023L668.2367 341.27682L667.4854 342.02814L670.0597 344.60245Q670.3801 344.92285 670.50165 344.9781Q670.6342 345.02228 670.77783 344.98914Q670.9215 344.956 671.0872 344.79028Q671.2198 344.65768 671.3966 344.4367ZM674.88794 341.18845Q674.82166 341.96185 674.57855 342.49216Q674.34656 343.01144 673.9046 343.4534Q673.1754 344.1826 672.4351 344.21576Q671.6949 344.2489 671.14246 343.69647Q670.8221 343.37607 670.7005 342.96725Q670.56793 342.54742 670.6563 342.14966Q670.73364 341.74088 670.95465 341.36523Q671.09827 341.08902 671.49603 340.58078Q672.2915 339.5864 672.56775 339.00082Q672.413 338.84616 672.3799 338.81302Q671.91583 338.34897 671.5181 338.37106Q670.9878 338.41525 670.4243 338.97873Q669.905 339.49802 669.83875 339.93997Q669.7614 340.37085 670.1039 340.95642L669.27527 341.58618Q668.91064 341.0227 668.8554 340.50345Q668.8002 339.98416 669.07635 339.3986Q669.3526 338.81302 669.9161 338.24954Q670.47955 337.68607 670.9657 337.4651Q671.45184 337.2441 671.8164 337.27725Q672.181 337.3104 672.5567 337.55347Q672.77765 337.70816 673.27484 338.20532L674.2692 339.1997Q675.30774 340.23828 675.6282 340.47028Q675.9596 340.69125 676.35736 340.80176L675.57294 341.58618Q675.2304 341.46466 674.88794 341.18845ZM673.1533 339.5864Q672.9102 340.16092 672.2252 341.08902Q671.82745 341.61932 671.728 341.89554Q671.61755 342.1607 671.66174 342.42587Q671.717 342.68 671.91583 342.87888Q672.2142 343.1772 672.63403 343.1551Q673.0649 343.12195 673.4958 342.69104Q673.9267 342.26016 674.0703 341.74088Q674.225 341.21054 674.0482 340.7244Q673.91565 340.34875 673.4295 339.8626L673.1533 339.5864ZM677.4843 339.6748L671.40765 333.59808L672.15894 332.8468L678.2356 338.9235L677.4843 339.6748Z" fill-rule="nonzero"/><path fill="#4285f4" d="M255.5 87.583336C255.5 87.03105 255.94771 86.583336 256.5 86.583336L266.5 86.583336C267.05228 86.583336 267.5 87.03105 267.5 87.583336L267.5 97.583336C267.5 98.13562 267.05228 98.583336 266.5 98.583336L256.5 98.583336C255.94771 98.583336 255.5 98.13562 255.5 97.583336Z" fill-rule="nonzero"/><path fill="#1a1a1a" d="M276.42188 96.583336L276.42188 87.989586L279.67188 87.989586Q280.51562 87.989586 280.96875 88.06771Q281.60938 88.177086 282.03125 88.47396Q282.46875 88.770836 282.71875 89.302086Q282.98438 89.833336 282.98438 90.47396Q282.98438 91.56771 282.28125 92.333336Q281.59375 93.083336 279.76562 93.083336L277.5625 93.083336L277.5625 96.583336L276.42188 96.583336ZM277.5625 92.083336L279.78125 92.083336Q280.89062 92.083336 281.34375 91.677086Q281.8125 91.25521 281.8125 90.50521Q281.8125 89.97396 281.53125 89.59896Q281.26562 89.208336 280.82812 89.083336Q280.53125 89.00521 279.76562 89.00521L277.5625 89.00521L277.5625 92.083336ZM283.90625 93.47396Q283.90625 91.739586 284.85938 90.91146Q285.65625 90.22396 286.8125 90.22396Q288.09375 90.22396 288.90625 91.06771Q289.73438 91.895836 289.73438 93.38021Q289.73438 94.583336 289.375 95.270836Q289.01562 95.958336 288.3125 96.34896Q287.625 96.72396 286.8125 96.72396Q285.51562 96.72396 284.70312 95.895836Q283.90625 95.052086 283.90625 93.47396ZM284.98438 93.47396Q284.98438 94.66146 285.5 95.25521Q286.03125 95.84896 286.8125 95.84896Q287.60938 95.84896 288.125 95.25521Q288.64062 94.66146 288.64062 93.44271Q288.64062 92.28646 288.10938 91.69271Q287.59375 91.09896 286.8125 91.09896Q286.03125 91.09896 285.5 91.69271Q284.98438 92.270836 284.98438 93.47396ZM290.875 94.72396L291.90625 94.56771Q292.0 95.19271 292.39062 95.520836Q292.79688 95.84896 293.53125 95.84896Q294.25 95.84896 294.59375 95.56771Q294.95312 95.270836 294.95312 94.864586Q294.95312 94.50521 294.64062 94.302086Q294.42188 94.16146 293.5625 93.94271Q292.40625 93.645836 291.95312 93.44271Q291.51562 93.22396 291.28125 92.84896Q291.04688 92.47396 291.04688 92.00521Q291.04688 91.59896 291.23438 91.239586Q291.42188 90.88021 291.75 90.645836Q292.0 90.47396 292.42188 90.34896Q292.84375 90.22396 293.34375 90.22396Q294.0625 90.22396 294.60938 90.44271Q295.17188 90.645836 295.4375 91.00521Q295.70312 91.364586 295.79688 91.958336L294.76562 92.09896Q294.70312 91.63021 294.35938 91.364586Q294.03125 91.083336 293.40625 91.083336Q292.6875 91.083336 292.375 91.333336Q292.0625 91.56771 292.0625 91.895836Q292.0625 92.09896 292.1875 92.25521Q292.32812 92.427086 292.59375 92.53646Q292.75 92.59896 293.53125 92.802086Q294.65625 93.114586 295.09375 93.302086Q295.53125 93.489586 295.78125 93.84896Q296.03125 94.208336 296.03125 94.75521Q296.03125 95.28646 295.71875 95.75521Q295.42188 96.208336 294.84375 96.47396Q294.26562 96.72396 293.53125 96.72396Q292.3125 96.72396 291.67188 96.22396Q291.04688 95.708336 290.875 94.72396ZM297.29688 89.208336L297.29688 87.989586L298.35938 87.989586L298.35938 89.208336L297.29688 89.208336ZM297.29688 96.583336L297.29688 90.364586L298.35938 90.364586L298.35938 96.583336L297.29688 96.583336ZM302.59375 95.645836L302.75 96.56771Q302.29688 96.66146 301.95312 96.66146Q301.375 96.66146 301.0625 96.489586Q300.75 96.302086 300.60938 96.00521Q300.48438 95.708336 300.48438 94.75521L300.48438 91.177086L299.71875 91.177086L299.71875 90.364586L300.48438 90.364586L300.48438 88.81771L301.53125 88.19271L301.53125 90.364586L302.59375 90.364586L302.59375 91.177086L301.53125 91.177086L301.53125 94.81771Q301.53125 95.270836 301.57812 95.395836Q301.64062 95.520836 301.76562 95.59896Q301.89062 95.677086 302.125 95.677086Q302.3125 95.677086 302.59375 95.645836ZM303.29688 89.208336L303.29688 87.989586L304.35938 87.989586L304.35938 89.208336L303.29688 89.208336ZM303.29688 96.583336L303.29688 90.364586L304.35938 90.364586L304.35938 96.583336L303.29688 96.583336ZM308.01562 96.583336L305.65625 90.364586L306.76562 90.364586L308.10938 94.083336Q308.3125 94.69271 308.5 95.333336Q308.64062 94.84896 308.89062 94.16146L310.28125 90.364586L311.35938 90.364586L309.0 96.583336L308.01562 96.583336ZM316.54688 94.583336L317.64062 94.708336Q317.39062 95.66146 316.6875 96.19271Q315.98438 96.72396 314.90625 96.72396Q313.54688 96.72396 312.73438 95.88021Q311.9375 95.03646 311.9375 93.520836Q311.9375 91.958336 312.75 91.09896Q313.5625 90.22396 314.84375 90.22396Q316.09375 90.22396 316.875 91.06771Q317.67188 91.91146 317.67188 93.458336Q317.67188 93.552086 317.67188 93.739586L313.03125 93.739586Q313.09375 94.770836 313.60938 95.31771Q314.125 95.84896 314.90625 95.84896Q315.48438 95.84896 315.89062 95.552086Q316.3125 95.239586 316.54688 94.583336ZM313.09375 92.88021L316.5625 92.88021Q316.5 92.083336 316.17188 91.69271Q315.65625 91.083336 314.85938 91.083336Q314.125 91.083336 313.625 91.56771Q313.14062 92.052086 313.09375 92.88021Z" fill-rule="nonzero"/><path fill="#db4437" d="M334.5 87.583336C334.5 87.03105 334.94772 86.583336 335.5 86.583336L345.5 86.583336C346.05228 86.583336 346.5 87.03105 346.5 87.583336L346.5 97.583336C346.5 98.13562 346.05228 98.583336 345.5 98.583336L335.5 98.583336C334.94772 98.583336 334.5 98.13562 334.5 97.583336Z" fill-rule="nonzero"/><path fill="#1a1a1a" d="M355.42188 96.583336L355.42188 87.989586L356.57812 87.989586L361.09375 94.739586L361.09375 87.989586L362.1875 87.989586L362.1875 96.583336L361.01562 96.583336L356.5 89.833336L356.5 96.583336L355.42188 96.583336ZM368.54688 94.583336L369.64062 94.708336Q369.39062 95.66146 368.6875 96.19271Q367.98438 96.72396 366.90625 96.72396Q365.54688 96.72396 364.73438 95.88021Q363.9375 95.03646 363.9375 93.520836Q363.9375 91.958336 364.75 91.09896Q365.5625 90.22396 366.84375 90.22396Q368.09375 90.22396 368.875 91.06771Q369.67188 91.91146 369.67188 93.458336Q369.67188 93.552086 369.67188 93.739586L365.03125 93.739586Q365.09375 94.770836 365.60938 95.31771Q366.125 95.84896 366.90625 95.84896Q367.48438 95.84896 367.89062 95.552086Q368.3125 95.239586 368.54688 94.583336ZM365.09375 92.88021L368.5625 92.88021Q368.5 92.083336 368.17188 91.69271Q367.65625 91.083336 366.85938 91.083336Q366.125 91.083336 365.625 91.56771Q365.14062 92.052086 365.09375 92.88021ZM371.09375 97.09896L372.125 97.25521Q372.1875 97.72396 372.48438 97.94271Q372.875 98.239586 373.54688 98.239586Q374.28125 98.239586 374.67188 97.94271Q375.07812 97.645836 375.21875 97.13021Q375.3125 96.802086 375.29688 95.770836Q374.60938 96.583336 373.57812 96.583336Q372.29688 96.583336 371.59375 95.66146Q370.89062 94.72396 370.89062 93.44271Q370.89062 92.552086 371.20312 91.802086Q371.53125 91.03646 372.14062 90.63021Q372.75 90.22396 373.57812 90.22396Q374.6875 90.22396 375.40625 91.114586L375.40625 90.364586L376.375 90.364586L376.375 95.739586Q376.375 97.19271 376.07812 97.802086Q375.78125 98.41146 375.14062 98.75521Q374.5 99.114586 373.5625 99.114586Q372.45312 99.114586 371.76562 98.614586Q371.07812 98.114586 371.09375 97.09896ZM371.96875 93.364586Q371.96875 94.583336 372.45312 95.145836Q372.9375 95.708336 373.67188 95.708336Q374.40625 95.708336 374.89062 95.145836Q375.39062 94.583336 375.39062 93.395836Q375.39062 92.25521 374.875 91.677086Q374.375 91.09896 373.65625 91.09896Q372.95312 91.09896 372.45312 91.677086Q371.96875 92.239586 371.96875 93.364586ZM382.35938 95.81771Q381.76562 96.31771 381.21875 96.520836Q380.6875 96.72396 380.0625 96.72396Q379.03125 96.72396 378.48438 96.22396Q377.9375 95.72396 377.9375 94.94271Q377.9375 94.489586 378.14062 94.114586Q378.34375 93.72396 378.6875 93.50521Q379.03125 93.270836 379.45312 93.16146Q379.75 93.06771 380.39062 92.989586Q381.65625 92.84896 382.26562 92.63021Q382.26562 92.41146 382.26562 92.364586Q382.26562 91.708336 381.96875 91.44271Q381.5625 91.09896 380.76562 91.09896Q380.03125 91.09896 379.67188 91.364586Q379.3125 91.614586 379.14062 92.270836L378.10938 92.13021Q378.25 91.47396 378.57812 91.06771Q378.90625 90.66146 379.51562 90.44271Q380.125 90.22396 380.92188 90.22396Q381.71875 90.22396 382.21875 90.41146Q382.71875 90.59896 382.95312 90.88021Q383.1875 91.16146 383.28125 91.59896Q383.32812 91.864586 383.32812 92.56771L383.32812 93.97396Q383.32812 95.44271 383.39062 95.833336Q383.46875 96.22396 383.67188 96.583336L382.5625 96.583336Q382.40625 96.25521 382.35938 95.81771ZM382.26562 93.458336Q381.6875 93.69271 380.54688 93.864586Q379.89062 93.958336 379.625 94.083336Q379.35938 94.19271 379.20312 94.41146Q379.0625 94.63021 379.0625 94.91146Q379.0625 95.333336 379.375 95.614586Q379.70312 95.895836 380.3125 95.895836Q380.92188 95.895836 381.39062 95.63021Q381.875 95.364586 382.09375 94.895836Q382.26562 94.53646 382.26562 93.84896L382.26562 93.458336ZM387.59375 95.645836L387.75 96.56771Q387.29688 96.66146 386.95312 96.66146Q386.375 96.66146 386.0625 96.489586Q385.75 96.302086 385.60938 96.00521Q385.48438 95.708336 385.48438 94.75521L385.48438 91.177086L384.71875 91.177086L384.71875 90.364586L385.48438 90.364586L385.48438 88.81771L386.53125 88.19271L386.53125 90.364586L387.59375 90.364586L387.59375 91.177086L386.53125 91.177086L386.53125 94.81771Q386.53125 95.270836 386.57812 95.395836Q386.64062 95.520836 386.76562 95.59896Q386.89062 95.677086 387.125 95.677086Q387.3125 95.677086 387.59375 95.645836ZM388.29688 89.208336L388.29688 87.989586L389.35938 87.989586L389.35938 89.208336L388.29688 89.208336ZM388.29688 96.583336L388.29688 90.364586L389.35938 90.364586L389.35938 96.583336L388.29688 96.583336ZM393.01562 96.583336L390.65625 90.364586L391.76562 90.364586L393.10938 94.083336Q393.3125 94.69271 393.5 95.333336Q393.64062 94.84896 393.89062 94.16146L395.28125 90.364586L396.35938 90.364586L394.0 96.583336L393.01562 96.583336ZM401.54688 94.583336L402.64062 94.708336Q402.39062 95.66146 401.6875 96.19271Q400.98438 96.72396 399.90625 96.72396Q398.54688 96.72396 397.73438 95.88021Q396.9375 95.03646 396.9375 93.520836Q396.9375 91.958336 397.75 91.09896Q398.5625 90.22396 399.84375 90.22396Q401.09375 90.22396 401.875 91.06771Q402.67188 91.91146 402.67188 93.458336Q402.67188 93.552086 402.67188 93.739586L398.03125 93.739586Q398.09375 94.770836 398.60938 95.31771Q399.125 95.84896 399.90625 95.84896Q400.48438 95.84896 400.89062 95.552086Q401.3125 95.239586 401.54688 94.583336ZM398.09375 92.88021L401.5625 92.88021Q401.5 92.083336 401.17188 91.69271Q400.65625 91.083336 399.85938 91.083336Q399.125 91.083336 398.625 91.56771Q398.14062 92.052086 398.09375 92.88021Z" fill-rule="nonzero"/><path fill="#bdbdbd" d="M419.5 87.583336C419.5 87.03105 419.94772 86.583336 420.5 86.583336L430.5 86.583336C431.05228 86.583336 431.5 87.03105 431.5 87.583336L431.5 97.583336C431.5 98.13562 431.05228 98.583336 430.5 98.583336L420.5 98.583336C419.94772 98.583336 419.5 98.13562 419.5 97.583336Z" fill-rule="nonzero"/><path fill="#1a1a1a" d="M440.04688 93.81771L441.10938 93.72396Q441.1875 94.38021 441.46875 94.78646Q441.75 95.19271 442.32812 95.458336Q442.92188 95.708336 443.65625 95.708336Q444.29688 95.708336 444.79688 95.520836Q445.29688 95.31771 445.53125 94.989586Q445.78125 94.645836 445.78125 94.25521Q445.78125 93.84896 445.54688 93.552086Q445.3125 93.239586 444.78125 93.03646Q444.42188 92.895836 443.23438 92.614586Q442.0625 92.333336 441.59375 92.083336Q440.96875 91.75521 440.67188 91.28646Q440.375 90.802086 440.375 90.208336Q440.375 89.56771 440.73438 89.00521Q441.10938 88.427086 441.8125 88.145836Q442.53125 87.84896 443.39062 87.84896Q444.34375 87.84896 445.07812 88.16146Q445.8125 88.458336 446.20312 89.06771Q446.59375 89.66146 446.625 90.41146L445.53125 90.489586Q445.4375 89.677086 444.92188 89.270836Q444.42188 88.84896 443.4375 88.84896Q442.40625 88.84896 441.9375 89.22396Q441.46875 89.59896 441.46875 90.13021Q441.46875 90.59896 441.79688 90.895836Q442.125 91.19271 443.5 91.50521Q444.89062 91.81771 445.40625 92.052086Q446.15625 92.41146 446.51562 92.94271Q446.875 93.458336 446.875 94.16146Q446.875 94.84896 446.48438 95.458336Q446.09375 96.052086 445.35938 96.395836Q444.625 96.72396 443.70312 96.72396Q442.53125 96.72396 441.73438 96.395836Q440.95312 96.052086 440.5 95.364586Q440.0625 94.677086 440.04688 93.81771ZM452.375 96.583336L452.375 95.66146Q451.64062 96.72396 450.39062 96.72396Q449.84375 96.72396 449.35938 96.520836Q448.89062 96.302086 448.65625 95.989586Q448.42188 95.66146 448.32812 95.19271Q448.26562 94.895836 448.26562 94.208336L448.26562 90.364586L449.32812 90.364586L449.32812 93.81771Q449.32812 94.63021 449.39062 94.927086Q449.48438 95.333336 449.79688 95.583336Q450.125 95.81771 450.60938 95.81771Q451.07812 95.81771 451.48438 95.583336Q451.90625 95.333336 452.07812 94.91146Q452.26562 94.489586 452.26562 93.69271L452.26562 90.364586L453.3125 90.364586L453.3125 96.583336L452.375 96.583336ZM456.26562 96.583336L455.28125 96.583336L455.28125 87.989586L456.34375 87.989586L456.34375 91.052086Q457.01562 90.22396 458.04688 90.22396Q458.625 90.22396 459.125 90.458336Q459.64062 90.677086 459.96875 91.09896Q460.3125 91.520836 460.5 92.114586Q460.6875 92.708336 460.6875 93.38021Q460.6875 94.97396 459.89062 95.84896Q459.09375 96.72396 458.0 96.72396Q456.89062 96.72396 456.26562 95.802086L456.26562 96.583336ZM456.25 93.427086Q456.25 94.53646 456.5625 95.03646Q457.0625 95.84896 457.90625 95.84896Q458.59375 95.84896 459.09375 95.25521Q459.60938 94.66146 459.60938 93.458336Q459.60938 92.239586 459.125 91.66146Q458.64062 91.083336 457.95312 91.083336Q457.26562 91.083336 456.75 91.69271Q456.25 92.28646 456.25 93.427086ZM464.59375 95.645836L464.75 96.56771Q464.29688 96.66146 463.95312 96.66146Q463.375 96.66146 463.0625 96.489586Q462.75 96.302086 462.60938 96.00521Q462.48438 95.708336 462.48438 94.75521L462.48438 91.177086L461.71875 91.177086L461.71875 90.364586L462.48438 90.364586L462.48438 88.81771L463.53125 88.19271L463.53125 90.364586L464.59375 90.364586L464.59375 91.177086L463.53125 91.177086L463.53125 94.81771Q463.53125 95.270836 463.57812 95.395836Q463.64062 95.520836 463.76562 95.59896Q463.89062 95.677086 464.125 95.677086Q464.3125 95.677086 464.59375 95.645836ZM464.90625 93.47396Q464.90625 91.739586 465.85938 90.91146Q466.65625 90.22396 467.8125 90.22396Q469.09375 90.22396 469.90625 91.06771Q470.73438 91.895836 470.73438 93.38021Q470.73438 94.583336 470.375 95.270836Q470.01562 95.958336 469.3125 96.34896Q468.625 96.72396 467.8125 96.72396Q466.51562 96.72396 465.70312 95.895836Q464.90625 95.052086 464.90625 93.47396ZM465.98438 93.47396Q465.98438 94.66146 466.5 95.25521Q467.03125 95.84896 467.8125 95.84896Q468.60938 95.84896 469.125 95.25521Q469.64062 94.66146 469.64062 93.44271Q469.64062 92.28646 469.10938 91.69271Q468.59375 91.09896 467.8125 91.09896Q467.03125 91.09896 466.5 91.69271Q465.98438 92.270836 465.98438 93.47396ZM474.59375 95.645836L474.75 96.56771Q474.29688 96.66146 473.95312 96.66146Q473.375 96.66146 473.0625 96.489586Q472.75 96.302086 472.60938 96.00521Q472.48438 95.708336 472.48438 94.75521L472.48438 91.177086L471.71875 91.177086L471.71875 90.364586L472.48438 90.364586L472.48438 88.81771L473.53125 88.19271L473.53125 90.364586L474.59375 90.364586L474.59375 91.177086L473.53125 91.177086L473.53125 94.81771Q473.53125 95.270836 473.57812 95.395836Q473.64062 95.520836 473.76562 95.59896Q473.89062 95.677086 474.125 95.677086Q474.3125 95.677086 474.59375 95.645836ZM479.35938 95.81771Q478.76562 96.31771 478.21875 96.520836Q477.6875 96.72396 477.0625 96.72396Q476.03125 96.72396 475.48438 96.22396Q474.9375 95.72396 474.9375 94.94271Q474.9375 94.489586 475.14062 94.114586Q475.34375 93.72396 475.6875 93.50521Q476.03125 93.270836 476.45312 93.16146Q476.75 93.06771 477.39062 92.989586Q478.65625 92.84896 479.26562 92.63021Q479.26562 92.41146 479.26562 92.364586Q479.26562 91.708336 478.96875 91.44271Q478.5625 91.09896 477.76562 91.09896Q477.03125 91.09896 476.67188 91.364586Q476.3125 91.614586 476.14062 92.270836L475.10938 92.13021Q475.25 91.47396 475.57812 91.06771Q475.90625 90.66146 476.51562 90.44271Q477.125 90.22396 477.92188 90.22396Q478.71875 90.22396 479.21875 90.41146Q479.71875 90.59896 479.95312 90.88021Q480.1875 91.16146 480.28125 91.59896Q480.32812 91.864586 480.32812 92.56771L480.32812 93.97396Q480.32812 95.44271 480.39062 95.833336Q480.46875 96.22396 480.67188 96.583336L479.5625 96.583336Q479.40625 96.25521 479.35938 95.81771ZM479.26562 93.458336Q478.6875 93.69271 477.54688 93.864586Q476.89062 93.958336 476.625 94.083336Q476.35938 94.19271 476.20312 94.41146Q476.0625 94.63021 476.0625 94.91146Q476.0625 95.333336 476.375 95.614586Q476.70312 95.895836 477.3125 95.895836Q477.92188 95.895836 478.39062 95.63021Q478.875 95.364586 479.09375 94.895836Q479.26562 94.53646 479.26562 93.84896L479.26562 93.458336ZM482.26562 96.583336L482.26562 87.989586L483.32812 87.989586L483.32812 96.583336L482.26562 96.583336Z" fill-rule="nonzero"/><path fill="#999999" d="M23.88125 67.35L23.88125 57.334373L27.63125 57.334373Q28.7875 57.334373 29.475 57.646873Q30.178125 57.94375 30.56875 58.56875Q30.959375 59.19375 30.959375 59.896873Q30.959375 60.5375 30.6 61.1Q30.25625 61.6625 29.553125 62.021873Q30.459375 62.2875 30.94375 62.928123Q31.44375 63.56875 31.44375 64.44375Q31.44375 65.14687 31.146875 65.75625Q30.85 66.36562 30.4125 66.69375Q29.975 67.02187 29.303125 67.19375Q28.646875 67.35 27.69375 67.35L23.88125 67.35ZM25.209375 61.5375L27.365625 61.5375Q28.25625 61.5375 28.63125 61.428123Q29.146875 61.271873 29.396875 60.928123Q29.646875 60.56875 29.646875 60.053123Q29.646875 59.553123 29.4125 59.178123Q29.178125 58.7875 28.725 58.646873Q28.2875 58.50625 27.209375 58.50625L25.209375 58.50625L25.209375 61.5375ZM25.209375 66.1625L27.69375 66.1625Q28.334375 66.1625 28.6 66.11562Q29.053125 66.0375 29.365625 65.85Q29.678125 65.64687 29.865625 65.2875Q30.06875 64.92812 30.06875 64.44375Q30.06875 63.88125 29.771875 63.475Q29.490625 63.053123 28.975 62.896873Q28.475 62.725 27.521875 62.725L25.209375 62.725L25.209375 66.1625ZM33.1625 67.35L33.1625 57.334373L34.475 57.334373L34.475 67.35L33.1625 67.35ZM39.475 67.35L39.475 58.50625L36.178123 58.50625L36.178123 57.334373L44.115623 57.334373L44.115623 58.50625L40.803123 58.50625L40.803123 67.35L39.475 67.35ZM45.475 64.13125L46.725 64.02187Q46.81875 64.77187 47.146873 65.25625Q47.475 65.74062 48.146873 66.0375Q48.834373 66.33437 49.69375 66.33437Q50.44375 66.33437 51.021873 66.11562Q51.615623 65.88125 51.896873 65.49062Q52.178123 65.1 52.178123 64.63125Q52.178123 64.1625 51.896873 63.81875Q51.63125 63.459373 51.00625 63.209373Q50.6 63.053123 49.209373 62.725Q47.834373 62.396873 47.2875 62.1Q46.56875 61.725 46.209373 61.178123Q45.865623 60.615623 45.865623 59.9125Q45.865623 59.1625 46.2875 58.50625Q46.725 57.834373 47.553123 57.50625Q48.38125 57.1625 49.396873 57.1625Q50.50625 57.1625 51.35 57.521873Q52.209373 57.88125 52.6625 58.584373Q53.115623 59.271873 53.1625 60.146873L51.88125 60.240623Q51.7875 59.303123 51.19375 58.81875Q50.6 58.31875 49.44375 58.31875Q48.240623 58.31875 47.69375 58.771873Q47.146873 59.209373 47.146873 59.834373Q47.146873 60.365623 47.5375 60.725Q47.9125 61.06875 49.521873 61.44375Q51.146873 61.803123 51.740623 62.06875Q52.615623 62.475 53.0375 63.1Q53.459373 63.709373 53.459373 64.52187Q53.459373 65.31875 52.990623 66.0375Q52.5375 66.74062 51.678123 67.13125Q50.81875 67.52187 49.75625 67.52187Q48.396873 67.52187 47.475 67.13125Q46.553123 66.725 46.021873 65.92812Q45.50625 65.13125 45.475 64.13125ZM60.678123 67.35L58.021873 57.334373L59.38125 57.334373L60.9125 63.896873Q61.146873 64.92812 61.334373 65.94375Q61.709373 64.33437 61.7875 64.1L63.69375 57.334373L65.2875 57.334373L66.725 62.396873Q67.25625 64.2875 67.50625 65.94375Q67.69375 64.99062 68.00625 63.771873L69.56875 57.334373L70.9125 57.334373L68.1625 67.35L66.88125 67.35L64.77187 59.709373Q64.50625 58.75625 64.45937 58.5375Q64.30312 59.225 64.1625 59.709373L62.0375 67.35L60.678123 67.35ZM71.7875 58.740623L71.7875 57.334373L73.00625 57.334373L73.00625 58.740623L71.7875 58.740623ZM71.7875 67.35L71.7875 60.084373L73.00625 60.084373L73.00625 67.35L71.7875 67.35ZM74.7875 67.35L74.7875 57.334373L76.00625 57.334373L76.00625 63.0375L78.92812 60.084373L80.52187 60.084373L77.74062 62.7875L80.80312 67.35L79.27187 67.35L76.88125 63.63125L76.00625 64.475L76.00625 67.35L74.7875 67.35ZM81.7875 58.740623L81.7875 57.334373L83.00625 57.334373L83.00625 58.740623L81.7875 58.740623ZM81.7875 67.35L81.7875 60.084373L83.00625 60.084373L83.00625 67.35L81.7875 67.35Z" fill-rule="nonzero"/><path fill="#757575" d="M28.0375 41.85L28.0375 29.224998L23.31875 29.224998L23.31875 27.537498L34.6625 27.537498L34.6625 29.224998L29.928125 29.224998L29.928125 41.85L28.0375 41.85ZM36.31875 41.85L36.31875 27.537498L38.209373 27.537498L38.209373 40.1625L45.25625 40.1625L45.25625 41.85L36.31875 41.85ZM57.615623 36.834373L59.50625 37.303123Q58.9125 39.646873 57.365623 40.88125Q55.81875 42.1 53.56875 42.1Q51.25625 42.1 49.803123 41.1625Q48.365623 40.209373 47.6 38.428123Q46.85 36.63125 46.85 34.584373Q46.85 32.35 47.69375 30.693748Q48.553123 29.021873 50.13125 28.162498Q51.709373 27.287498 53.6 27.287498Q55.75625 27.287498 57.209373 28.381248Q58.678123 29.474998 59.25625 31.459373L57.396873 31.896873Q56.896873 30.334373 55.94375 29.631248Q55.00625 28.912498 53.56875 28.912498Q51.9125 28.912498 50.803123 29.709373Q49.69375 30.490623 49.240623 31.834373Q48.803123 33.1625 48.803123 34.56875Q48.803123 36.396873 49.334373 37.771873Q49.865623 39.13125 50.990623 39.803123Q52.115623 40.475 53.4125 40.475Q55.00625 40.475 56.115623 39.553123Q57.225 38.63125 57.615623 36.834373ZM67.39687 41.85L67.39687 27.537498L72.7875 27.537498Q74.225 27.537498 74.975 27.662498Q76.02187 27.849998 76.74062 28.349998Q77.45937 28.834373 77.88125 29.724998Q78.31875 30.615623 78.31875 31.678123Q78.31875 33.50625 77.14687 34.771873Q75.99062 36.021873 72.95937 36.021873L69.2875 36.021873L69.2875 41.85L67.39687 41.85ZM69.2875 34.334373L72.99062 34.334373Q74.81875 34.334373 75.58437 33.6625Q76.36562 32.975 76.36562 31.724998Q76.36562 30.834373 75.9125 30.193748Q75.45937 29.553123 74.725 29.349998Q74.24062 29.224998 72.94375 29.224998L69.2875 29.224998L69.2875 34.334373ZM80.14687 41.85L80.14687 31.474998L81.725 31.474998L81.725 33.053123Q82.33437 31.943748 82.85 31.599998Q83.36562 31.240623 83.975 31.240623Q84.86562 31.240623 85.7875 31.803123L85.17812 33.44375Q84.5375 33.053123 83.89687 33.053123Q83.31875 33.053123 82.85 33.4125Q82.39687 33.75625 82.19375 34.365623Q81.9125 35.303123 81.9125 36.4125L81.9125 41.85L80.14687 41.85ZM86.52187 36.6625Q86.52187 33.7875 88.11562 32.396873Q89.45937 31.240623 91.38125 31.240623Q93.52187 31.240623 94.86562 32.646873Q96.225 34.053123 96.225 36.521873Q96.225 38.521873 95.63125 39.678123Q95.0375 40.81875 93.88125 41.459373Q92.74062 42.084373 91.38125 42.084373Q89.19375 42.084373 87.85 40.69375Q86.52187 39.2875 86.52187 36.6625ZM88.31875 36.6625Q88.31875 38.6625 89.17812 39.646873Q90.05312 40.63125 91.38125 40.63125Q92.69375 40.63125 93.55312 39.646873Q94.42812 38.646873 94.42812 36.6Q94.42812 34.678123 93.55312 33.69375Q92.67812 32.69375 91.38125 32.69375Q90.05312 32.69375 89.17812 33.69375Q88.31875 34.678123 88.31875 36.6625ZM98.1625 29.568748L98.1625 27.537498L99.9125 27.537498L99.9125 29.568748L98.1625 29.568748ZM95.92812 45.88125L96.25625 44.38125Q96.7875 44.521873 97.1 44.521873Q97.63125 44.521873 97.89687 44.1625Q98.1625 43.803123 98.1625 42.38125L98.1625 31.474998L99.9125 31.474998L99.9125 42.4125Q99.9125 44.334373 99.4125 45.084373Q98.7875 46.053123 97.30312 46.053123Q96.6 46.053123 95.92812 45.88125ZM109.27187 38.50625L111.08437 38.740623Q110.6625 40.31875 109.49062 41.209373Q108.33437 42.084373 106.52187 42.084373Q104.25625 42.084373 102.9125 40.69375Q101.58437 39.2875 101.58437 36.75625Q101.58437 34.13125 102.92812 32.69375Q104.27187 31.240623 106.42812 31.240623Q108.50625 31.240623 109.81875 32.6625Q111.14687 34.06875 111.14687 36.646873Q111.14687 36.803123 111.13125 37.115623L103.39687 37.115623Q103.49062 38.81875 104.36562 39.725Q105.24062 40.63125 106.5375 40.63125Q107.50625 40.63125 108.17812 40.13125Q108.86562 39.615623 109.27187 38.50625ZM103.49062 35.6625L109.2875 35.6625Q109.17812 34.365623 108.63125 33.709373Q107.7875 32.69375 106.44375 32.69375Q105.24062 32.69375 104.4125 33.50625Q103.58437 34.303123 103.49062 35.6625ZM119.94375 38.053123L121.6625 38.271873Q121.38125 40.06875 120.20937 41.084373Q119.05312 42.084373 117.35 42.084373Q115.225 42.084373 113.92812 40.69375Q112.63125 39.303123 112.63125 36.709373Q112.63125 35.021873 113.17812 33.771873Q113.74062 32.50625 114.88125 31.881248Q116.02187 31.240623 117.36562 31.240623Q119.05312 31.240623 120.11562 32.1Q121.19375 32.959373 121.50625 34.521873L119.7875 34.7875Q119.55312 33.740623 118.92812 33.225Q118.30312 32.69375 117.42812 32.69375Q116.1 32.69375 115.27187 33.646873Q114.44375 34.6 114.44375 36.646873Q114.44375 38.740623 115.24062 39.69375Q116.0375 40.63125 117.33437 40.63125Q118.36562 40.63125 119.05312 40.00625Q119.75625 39.365623 119.94375 38.053123ZM127.00625 40.271873L127.25625 41.834373Q126.52187 41.990623 125.92812 41.990623Q124.975 41.990623 124.44375 41.69375Q123.92812 41.38125 123.70937 40.896873Q123.49062 40.396873 123.49062 38.81875L123.49062 32.85L122.20937 32.85L122.20937 31.474998L123.49062 31.474998L123.49062 28.912498L125.24062 27.849998L125.24062 31.474998L127.00625 31.474998L127.00625 32.85L125.24062 32.85L125.24062 38.9125Q125.24062 39.6625 125.33437 39.88125Q125.42812 40.084373 125.63125 40.225Q125.85 40.35 126.24062 40.35Q126.52187 40.35 127.00625 40.271873Z" fill-rule="nonzero"/></svg>